<?xml version="1.0" encoding="UTF-8" ?>
<!DOCTYPE svg PUBLIC "-//W3C//DTD SVG 1.1//EN" "http://www.w3.org/Graphics/SVG/1.1/DTD/svg11.dtd">
<svg width="1024pt" height="1024pt" viewBox="0 0 1024 1024" version="1.1" xmlns="http://www.w3.org/2000/svg">
<g id="#fcfefbff">
<path fill="#fcfefb" opacity="1.00" d=" M 0.00 0.00 L 1024.00 0.00 L 1024.00 1024.00 L 0.00 1024.00 L 0.00 0.00 M 484.43 109.09 C 479.63 108.75 474.76 109.96 469.93 110.16 C 447.35 112.88 424.99 117.24 402.98 122.93 C 386.73 127.61 370.64 132.85 354.87 138.94 C 345.86 142.71 337.10 147.03 328.26 151.17 C 311.85 158.33 296.58 167.78 281.81 177.84 C 254.62 195.59 230.67 217.82 208.59 241.53 C 205.89 244.62 202.89 247.53 201.00 251.23 C 199.40 252.17 198.24 253.65 197.05 255.05 C 191.05 262.45 185.43 270.15 179.85 277.88 C 174.21 285.10 170.10 293.34 164.82 300.81 C 156.88 312.99 150.37 326.04 144.06 339.12 C 137.90 350.30 134.63 362.73 129.44 374.33 C 126.13 381.60 124.64 389.48 122.24 397.05 C 120.63 403.33 118.53 409.50 117.61 415.93 C 115.63 421.37 114.73 427.13 113.46 432.76 C 112.06 439.24 110.41 445.68 109.71 452.29 C 109.00 460.20 107.30 468.02 107.44 476.00 C 106.52 486.30 106.29 496.65 105.92 507.00 C 106.42 517.98 106.30 528.98 106.68 539.98 C 107.40 546.81 107.97 553.68 109.17 560.46 C 110.85 573.32 112.59 586.22 115.94 598.78 C 118.24 607.19 118.92 616.06 122.19 624.17 C 125.03 637.77 130.00 650.87 134.97 663.83 C 137.31 668.67 138.49 674.13 141.93 678.38 C 141.98 681.54 143.76 684.38 144.98 687.23 C 148.42 693.48 151.27 700.03 154.89 706.18 C 159.07 713.63 162.67 721.43 167.59 728.44 C 170.42 732.33 172.04 737.16 175.91 740.24 C 176.86 744.00 179.94 746.70 181.88 749.96 C 186.45 757.31 191.77 764.14 196.94 771.08 C 204.80 781.12 214.21 789.81 222.59 799.41 C 229.40 806.27 235.81 813.56 243.40 819.60 C 249.63 826.07 256.73 831.58 263.68 837.24 C 282.20 851.04 301.14 864.44 321.60 875.23 C 328.03 878.11 333.91 882.08 340.44 884.75 C 349.78 888.68 358.86 893.27 368.46 896.59 C 375.02 898.84 381.22 902.67 388.32 902.84 C 390.30 903.86 392.32 904.82 394.44 905.54 C 406.67 909.60 419.35 912.06 431.99 914.48 C 439.90 915.31 447.71 917.74 455.71 917.44 C 464.29 919.76 473.21 919.25 481.99 920.28 C 496.65 920.79 511.32 920.93 525.98 920.62 C 540.33 920.43 554.56 918.34 568.75 916.37 C 583.05 914.60 597.09 911.23 611.02 907.67 C 622.66 903.97 634.75 901.70 646.07 897.02 C 651.58 894.90 657.30 893.32 662.65 890.79 C 669.51 887.55 676.88 885.48 683.52 881.75 C 696.19 874.89 709.70 869.57 721.70 861.51 C 731.12 855.74 740.81 850.35 749.59 843.59 C 753.30 840.60 757.68 838.43 761.00 834.98 C 783.71 817.63 803.91 797.15 822.10 775.16 C 829.60 765.25 837.92 755.94 844.69 745.50 C 846.03 743.23 848.23 741.25 848.56 738.53 C 852.12 734.93 854.25 730.28 857.08 726.14 C 859.40 722.18 862.35 718.46 863.70 714.02 C 866.92 710.49 868.43 705.86 870.87 701.83 C 871.70 700.01 873.12 698.33 873.28 696.30 C 877.95 689.81 880.55 682.15 884.03 675.02 C 886.10 670.24 888.69 665.52 889.52 660.34 C 893.88 651.85 896.29 642.55 899.25 633.52 C 900.06 630.47 901.50 627.52 901.63 624.34 C 911.63 592.85 915.77 559.76 916.74 526.83 C 917.71 518.92 917.25 510.94 917.34 503.00 C 916.74 469.07 911.56 435.28 902.46 402.60 C 899.78 393.43 897.60 384.06 893.68 375.31 C 890.58 366.88 887.68 358.37 883.76 350.28 C 878.08 336.79 871.57 323.68 864.42 310.92 C 852.68 292.17 840.05 273.95 826.40 256.54 C 818.82 247.52 810.80 238.88 802.78 230.26 C 790.74 216.79 776.70 205.37 763.04 193.62 C 754.29 185.99 744.49 179.71 735.04 173.02 C 726.78 167.39 717.91 162.75 709.32 157.67 C 693.75 148.49 677.30 140.85 660.31 134.70 C 646.87 129.09 632.82 125.23 618.90 121.09 C 603.06 117.11 587.02 113.91 570.82 111.88 C 562.13 110.50 553.34 109.46 544.53 109.47 C 539.45 108.29 534.20 108.60 529.03 108.36 C 520.76 108.14 512.48 107.58 504.22 108.12 C 497.62 108.12 490.97 108.04 484.43 109.09 Z" />
<path fill="#fcfefb" opacity="1.00" d=" M 493.20 156.35 C 509.83 155.19 526.54 156.02 543.13 157.46 C 573.13 159.47 602.65 166.29 631.04 176.04 C 653.64 183.80 675.14 194.53 695.35 207.23 C 711.42 217.69 727.31 228.55 741.61 241.37 C 752.37 250.61 762.01 261.06 771.80 271.30 C 777.64 277.79 783.53 284.25 788.66 291.32 C 794.56 299.45 801.12 307.12 806.25 315.78 C 813.09 325.85 818.85 336.59 824.75 347.22 C 833.69 365.54 842.31 384.17 847.30 404.02 C 856.17 431.98 861.17 461.08 862.87 490.34 C 864.66 508.10 865.23 526.00 863.36 543.78 C 861.79 548.33 860.02 552.80 858.08 557.20 C 858.15 553.59 857.50 550.03 856.42 546.60 C 856.44 536.04 857.01 525.49 856.88 514.94 C 856.57 513.59 857.21 511.34 855.59 510.75 C 835.13 501.76 813.62 495.51 792.34 488.79 C 752.04 478.42 711.42 468.68 670.00 464.08 C 659.63 463.30 649.35 461.33 638.93 461.34 C 634.75 461.17 631.29 463.81 628.00 466.00 C 621.76 470.42 614.79 473.62 607.88 476.84 C 599.70 480.62 590.79 482.29 582.05 484.23 C 572.69 486.26 562.95 487.16 554.11 491.09 C 545.62 495.08 538.23 501.59 533.55 509.74 C 530.49 516.69 530.69 524.57 529.93 532.01 C 529.43 545.04 527.71 558.01 527.45 571.05 C 535.16 572.57 542.28 576.03 549.01 580.00 C 556.15 583.88 562.09 589.51 567.94 595.07 C 580.19 606.92 589.43 621.64 595.51 637.52 C 602.23 637.26 608.92 638.58 615.24 640.78 C 620.30 642.69 625.46 644.76 629.54 648.44 C 634.87 653.24 639.95 658.44 643.88 664.49 C 656.01 661.29 668.37 657.71 681.07 659.08 C 693.27 659.92 703.80 667.43 711.73 676.28 C 714.72 679.89 717.82 683.41 721.18 686.70 C 717.40 684.66 713.48 682.68 710.60 679.42 C 706.57 675.04 702.13 670.72 696.35 668.84 C 685.45 665.44 673.92 666.73 662.69 666.47 C 666.14 670.99 670.03 675.28 672.46 680.50 C 675.34 686.23 676.76 692.88 681.34 697.63 C 686.86 703.67 695.07 705.82 701.64 710.41 C 696.56 712.53 691.59 709.29 687.14 707.11 C 683.33 704.92 678.83 703.55 675.90 700.13 C 669.91 692.10 668.57 680.96 660.57 674.39 C 655.95 670.29 649.50 672.95 644.04 672.87 C 641.47 679.53 641.30 686.76 639.22 693.55 C 636.05 687.95 637.36 681.09 634.68 675.30 C 629.40 661.82 615.07 653.23 600.79 653.48 C 598.67 659.69 599.07 666.40 600.78 672.66 C 603.23 684.70 607.40 696.90 615.94 706.04 C 618.89 709.05 621.72 712.48 625.69 714.18 C 632.62 716.04 640.02 714.10 646.91 716.17 C 654.21 718.96 658.90 725.63 663.16 731.83 C 664.97 734.29 666.47 737.23 669.20 738.81 C 677.80 741.15 687.80 736.94 695.56 742.46 C 701.27 746.50 707.27 750.11 713.13 753.94 C 705.92 752.12 699.97 747.29 692.90 745.17 C 685.90 743.88 678.80 745.72 671.75 745.20 C 674.47 748.82 677.06 752.75 677.84 757.31 C 678.69 762.40 679.11 767.61 680.76 772.54 C 682.50 778.45 686.61 783.34 688.03 789.36 C 681.80 785.58 678.33 778.71 676.02 772.05 C 673.78 765.68 674.60 758.22 670.32 752.64 C 666.28 747.27 662.55 741.68 658.93 736.02 C 656.35 731.96 652.64 728.74 648.51 726.34 C 646.42 724.81 643.83 726.03 641.55 726.26 C 632.32 728.22 622.72 725.01 615.29 719.52 C 608.56 714.36 602.25 708.51 597.68 701.30 C 591.14 690.51 585.15 678.81 584.32 665.99 C 583.94 660.98 587.02 655.60 584.22 650.92 C 579.57 642.74 575.74 634.13 571.06 625.96 C 566.78 617.36 559.96 610.39 552.67 604.28 C 545.50 597.93 536.96 593.05 527.68 590.57 C 527.53 605.39 527.31 620.23 528.39 635.02 C 528.68 643.77 534.09 651.18 539.23 657.84 C 546.02 663.32 551.55 670.14 558.15 675.84 C 564.47 681.30 569.73 687.91 573.86 695.16 C 578.07 701.68 580.18 709.18 582.56 716.48 C 587.79 715.46 593.46 715.04 598.35 717.59 C 602.92 719.64 606.83 722.82 610.70 725.94 C 613.64 728.45 616.61 731.08 618.58 734.47 C 622.44 740.89 624.45 748.27 628.76 754.46 C 636.48 753.45 644.52 754.09 651.49 757.80 C 645.21 758.21 638.85 757.39 632.66 758.82 C 636.93 767.37 642.47 775.26 645.98 784.19 C 648.79 791.63 653.19 798.47 654.96 806.29 C 650.61 799.96 647.68 792.69 642.44 786.95 C 641.04 794.02 638.13 800.68 634.93 807.10 C 636.19 799.09 639.84 791.29 638.80 783.05 C 636.81 775.21 632.09 768.38 627.22 762.04 C 625.19 765.71 622.67 769.11 620.95 772.95 C 619.11 776.84 618.25 781.08 616.85 785.14 C 616.12 783.64 614.88 782.20 615.18 780.45 C 615.73 772.66 619.63 765.74 623.38 759.09 C 617.72 750.10 615.26 739.11 607.55 731.46 C 601.96 725.97 594.09 723.38 586.36 723.28 C 586.85 733.16 589.43 743.06 587.69 752.96 C 587.37 755.14 586.26 757.08 585.18 758.97 C 584.25 756.41 583.63 753.75 583.33 751.05 C 582.18 741.33 578.87 732.04 577.44 722.38 C 575.79 722.57 574.15 722.76 572.51 722.93 C 568.07 708.77 560.64 695.42 550.16 684.86 C 545.55 680.78 541.49 676.16 537.08 671.89 C 533.39 668.40 532.41 662.95 528.28 659.82 C 525.27 669.36 527.19 679.44 526.42 689.23 C 526.24 694.17 525.03 699.10 525.66 704.06 C 526.96 711.72 531.38 718.28 535.04 724.98 C 536.75 728.01 537.92 731.33 539.74 734.30 C 543.85 736.55 548.34 738.10 552.22 740.79 C 562.27 747.75 572.42 755.16 579.48 765.32 C 577.64 765.72 575.80 766.14 573.98 766.60 C 565.05 757.07 554.91 747.96 542.22 743.91 C 542.85 751.20 542.49 758.62 540.37 765.67 C 539.18 764.51 537.83 763.49 536.93 762.10 C 536.33 758.64 536.08 755.14 535.24 751.73 C 534.75 746.36 534.90 740.66 532.14 735.82 C 527.75 727.79 521.32 720.88 518.50 712.02 C 515.02 721.62 506.81 728.21 501.84 736.91 C 496.14 747.37 497.97 760.23 502.50 770.78 C 500.25 771.20 498.00 771.62 495.75 772.06 C 492.13 764.49 489.31 755.93 490.74 747.47 C 488.12 750.35 484.66 752.22 481.67 754.67 C 476.86 758.54 472.09 762.50 467.86 767.02 C 467.08 766.58 466.30 766.15 465.53 765.74 C 466.70 764.20 467.87 762.67 469.04 761.14 C 468.77 760.56 468.23 759.39 467.96 758.80 C 474.29 752.41 481.34 746.77 488.88 741.88 C 495.27 737.92 497.30 730.28 501.47 724.46 C 507.83 715.51 515.01 705.54 513.87 693.96 C 512.43 682.10 514.19 670.17 513.62 658.28 C 509.87 661.98 506.90 666.41 502.85 669.82 C 497.39 674.34 492.37 679.35 487.28 684.28 C 476.52 694.28 471.73 708.63 466.59 721.97 C 464.10 721.38 461.66 720.64 459.19 720.01 C 454.74 732.14 454.78 745.38 450.77 757.66 C 450.04 757.72 448.59 757.83 447.86 757.88 C 446.17 746.18 449.27 734.63 449.84 723.00 C 445.65 723.36 441.51 724.18 437.47 725.38 C 435.47 725.07 433.48 724.69 431.49 724.33 C 431.24 723.18 431.00 722.05 430.76 720.92 C 437.84 717.24 445.71 715.35 453.70 715.79 C 456.54 705.31 462.07 695.88 467.80 686.77 C 474.79 677.17 484.58 670.23 492.92 661.92 C 501.00 654.94 507.30 645.55 509.46 635.01 C 509.25 632.31 508.34 629.73 508.10 627.04 C 507.39 614.41 507.88 601.76 507.39 589.13 C 499.41 591.59 491.76 595.15 484.85 599.85 C 474.27 607.71 466.44 618.63 460.19 630.10 C 457.50 635.41 455.15 640.91 451.92 645.93 C 450.20 648.92 447.70 651.92 448.13 655.60 C 448.39 662.26 449.72 669.13 447.70 675.67 C 444.71 684.97 442.81 694.90 437.03 703.01 C 432.82 709.67 426.82 714.87 420.72 719.73 C 415.81 723.56 409.75 725.71 403.58 726.29 C 398.72 726.69 393.72 727.34 388.96 725.93 C 387.78 725.73 386.57 725.15 385.38 725.54 C 384.43 725.75 383.50 726.01 382.56 726.27 C 382.11 724.12 381.65 721.97 381.18 719.84 C 383.76 717.68 386.70 715.60 390.18 715.41 C 397.53 714.55 405.77 716.82 412.29 712.33 C 422.31 705.97 427.59 694.65 430.55 683.56 C 432.33 677.83 433.08 671.85 433.68 665.90 C 434.22 661.17 431.72 656.88 430.26 652.54 C 418.48 654.17 406.44 659.69 400.20 670.27 C 395.60 676.81 395.57 685.08 392.93 692.38 C 389.82 686.81 391.47 679.93 388.60 674.34 C 385.50 672.93 382.06 672.52 378.72 672.01 C 381.09 669.35 383.88 667.14 386.71 665.01 C 389.88 661.39 392.41 657.25 395.87 653.88 C 406.43 642.75 421.86 637.49 436.93 636.79 C 445.26 620.06 455.00 603.61 468.85 590.82 C 478.96 580.82 492.19 574.78 505.44 570.10 C 504.92 561.41 504.43 552.71 503.50 544.05 C 502.39 532.58 502.00 520.88 498.65 509.78 C 497.17 504.45 493.80 499.91 489.98 496.02 C 484.37 490.43 477.89 485.59 470.50 482.64 C 464.91 480.44 458.87 479.99 452.98 479.08 C 438.96 477.29 424.85 475.50 411.20 471.71 C 402.18 469.30 394.24 463.67 384.93 462.29 C 376.56 461.73 368.23 463.09 359.93 464.04 C 337.44 466.98 315.10 470.95 292.83 475.24 C 280.25 478.33 267.51 480.70 255.00 484.08 C 246.06 486.52 236.91 488.20 228.09 491.09 C 223.73 492.47 219.41 494.01 215.02 495.31 C 207.10 497.65 199.67 501.34 191.79 503.77 C 184.49 506.05 177.63 509.45 170.89 513.03 C 169.72 513.71 168.45 514.37 167.61 515.47 C 165.95 521.50 167.14 527.78 167.35 533.91 C 167.92 550.78 170.35 567.50 172.65 584.20 C 173.56 590.25 174.98 596.21 176.52 602.13 C 173.58 606.83 176.55 612.05 177.26 616.94 C 174.67 613.47 172.47 609.64 171.81 605.31 C 169.64 593.22 165.31 581.49 164.79 569.13 C 164.52 564.94 163.57 560.84 162.45 556.80 C 162.24 558.93 162.03 561.06 161.93 563.21 C 161.54 558.84 161.00 554.49 160.36 550.15 C 160.32 546.12 160.32 542.09 159.95 538.07 C 158.52 517.05 159.40 495.94 161.04 474.96 C 163.22 448.57 168.91 422.58 176.35 397.21 C 179.73 390.16 180.90 382.32 184.25 375.26 C 189.47 363.94 194.24 352.38 200.48 341.56 C 203.68 334.97 208.11 329.12 211.86 322.86 C 216.94 313.50 224.31 305.66 229.69 296.49 C 238.68 285.30 247.97 274.35 257.78 263.87 C 264.46 255.83 272.11 248.68 280.38 242.30 C 288.41 235.68 295.82 228.31 304.43 222.42 C 322.20 210.50 340.01 198.33 359.74 189.81 C 372.78 184.35 385.71 178.55 399.21 174.29 C 406.54 171.98 413.73 169.20 421.22 167.40 C 436.41 163.93 451.64 160.52 467.10 158.50 C 475.76 157.29 484.57 157.82 493.20 156.35 M 655.24 254.11 C 641.21 266.95 625.28 277.55 608.55 286.52 C 602.11 290.34 595.85 294.45 589.53 298.47 C 576.23 305.99 564.30 315.74 553.21 326.19 C 540.07 339.10 528.60 353.92 520.54 370.54 C 516.59 378.46 514.36 387.07 511.84 395.52 C 510.27 402.17 509.55 409.05 509.60 415.88 C 509.38 419.32 509.24 422.76 509.20 426.20 C 508.50 424.58 507.64 423.05 506.81 421.50 C 504.92 421.66 503.02 421.81 501.13 421.96 C 498.17 410.01 493.40 398.51 487.00 388.00 C 478.06 374.30 466.95 362.03 454.19 351.80 C 438.68 340.31 421.69 330.68 403.41 324.39 C 381.98 316.20 358.87 312.72 335.98 313.16 C 319.31 313.98 301.82 316.11 287.59 325.58 C 282.49 328.56 279.44 334.26 273.55 335.98 C 280.04 336.59 286.63 335.97 293.09 337.09 C 299.41 338.10 306.21 339.36 311.03 343.93 C 318.73 350.91 323.10 360.69 326.88 370.17 C 333.31 385.47 339.49 401.13 349.44 414.56 C 358.85 427.79 370.93 438.90 384.40 447.90 C 396.92 455.85 410.72 462.52 425.61 464.26 C 437.70 466.37 449.96 467.51 461.97 470.11 C 475.27 473.06 488.26 479.28 497.26 489.75 C 503.88 497.80 505.19 508.51 508.46 518.07 C 509.92 527.04 511.65 535.99 512.32 545.06 C 512.50 547.12 512.94 549.15 513.50 551.15 C 513.29 538.70 515.40 526.38 517.29 514.12 C 518.85 510.40 520.02 506.51 521.95 502.96 C 527.56 491.87 538.06 483.42 550.02 480.12 C 561.98 476.24 574.50 474.76 586.67 471.80 C 600.92 467.78 615.21 462.45 627.05 453.43 C 632.01 450.84 636.30 447.16 640.31 443.31 C 646.28 436.83 652.14 430.15 656.50 422.44 C 661.39 413.58 665.71 404.35 668.71 394.66 C 674.38 373.99 676.84 352.33 674.91 330.94 C 673.94 312.99 670.30 295.35 667.64 277.61 C 665.92 266.69 663.25 255.84 663.39 244.72 C 661.04 248.17 657.88 250.94 655.24 254.11 Z" />
<path fill="#fcfefb" opacity="1.00" d=" M 407.46 385.13 C 409.08 384.89 410.94 386.47 410.48 388.18 C 410.11 388.18 409.36 388.18 408.98 388.18 C 408.42 387.20 407.52 386.29 407.46 385.13 Z" />
</g>
<g id="#94c843ff">
<path fill="#94c843" opacity="1.00" d=" M 484.43 109.09 C 490.97 108.04 497.62 108.12 504.22 108.12 C 501.95 108.53 499.15 108.64 497.82 110.84 C 494.57 115.64 492.51 121.28 491.85 127.04 C 490.18 120.76 488.15 114.50 484.43 109.09 Z" />
</g>
<g id="#63ad2eff">
<path fill="#63ad2e" opacity="1.00" d=" M 504.22 108.12 C 512.48 107.58 520.76 108.14 529.03 108.36 C 534.20 108.60 539.45 108.29 544.53 109.47 C 542.63 110.19 540.78 111.02 538.93 111.85 C 540.91 112.99 542.83 114.47 545.18 114.68 C 549.02 115.19 553.15 114.44 556.68 116.40 C 559.89 118.17 563.58 119.31 566.41 121.64 C 567.87 126.14 567.60 130.97 568.38 135.60 C 572.46 135.99 576.74 137.09 580.73 135.64 C 583.99 134.42 587.30 133.31 590.72 132.64 C 591.00 136.42 591.23 140.21 591.50 144.00 C 587.51 144.01 583.40 143.49 579.53 144.60 C 576.43 146.21 574.36 149.15 572.09 151.69 C 577.95 152.45 583.86 151.99 589.75 152.24 C 589.67 154.82 589.58 157.40 589.51 159.99 C 594.23 163.31 600.06 162.38 605.43 161.77 C 605.16 162.68 604.91 163.59 604.66 164.51 C 607.05 163.92 609.46 163.20 611.96 163.27 C 615.39 163.90 618.56 165.47 621.77 166.80 C 624.37 170.37 628.53 171.98 632.57 173.33 C 632.05 174.23 631.54 175.13 631.04 176.04 C 602.65 166.29 573.13 159.47 543.13 157.46 C 526.54 156.02 509.83 155.19 493.20 156.35 C 486.79 156.16 480.37 156.25 473.99 156.89 C 478.90 153.74 484.20 151.25 489.10 148.08 C 492.48 145.73 496.18 142.50 496.13 138.02 C 496.01 133.95 493.10 130.76 491.85 127.04 C 492.51 121.28 494.57 115.64 497.82 110.84 C 499.15 108.64 501.95 108.53 504.22 108.12 Z" />
</g>
<g id="#b4d355ff">
<path fill="#b4d355" opacity="1.00" d=" M 469.93 110.16 C 474.76 109.96 479.63 108.75 484.43 109.09 C 488.15 114.50 490.18 120.76 491.85 127.04 C 493.10 130.76 496.01 133.95 496.13 138.02 C 496.18 142.50 492.48 145.73 489.10 148.08 C 484.20 151.25 478.90 153.74 473.99 156.89 C 480.37 156.25 486.79 156.16 493.20 156.35 C 484.57 157.82 475.76 157.29 467.10 158.50 C 451.64 160.52 436.41 163.93 421.22 167.40 C 413.73 169.20 406.54 171.98 399.21 174.29 C 385.71 178.55 372.78 184.35 359.74 189.81 C 340.01 198.33 322.20 210.50 304.43 222.42 C 295.82 228.31 288.41 235.68 280.38 242.30 C 272.11 248.68 264.46 255.83 257.78 263.87 C 247.97 274.35 238.68 285.30 229.69 296.49 C 232.08 289.79 234.52 282.39 240.98 278.50 C 238.81 276.61 236.66 274.70 234.53 272.77 C 236.86 270.42 239.77 268.89 243.14 268.95 C 243.36 270.76 243.55 272.59 243.75 274.41 C 247.44 270.96 250.14 266.68 253.23 262.72 C 253.10 259.99 253.50 257.27 254.22 254.64 C 255.58 255.79 256.93 256.96 258.29 258.13 C 261.20 253.28 264.57 248.73 268.36 244.54 C 265.66 243.71 262.90 242.85 260.04 242.91 C 249.01 243.01 237.97 243.14 226.94 242.86 C 222.09 242.76 216.77 241.49 212.33 244.16 C 208.56 246.51 204.97 249.17 201.00 251.23 C 202.89 247.53 205.89 244.62 208.59 241.53 C 230.67 217.82 254.62 195.59 281.81 177.84 C 296.58 167.78 311.85 158.33 328.26 151.17 C 337.10 147.03 345.86 142.71 354.87 138.94 C 370.64 132.85 386.73 127.61 402.98 122.93 C 424.99 117.24 447.35 112.88 469.93 110.16 Z" />
</g>
<g id="#60a72cff">
<path fill="#60a72c" opacity="1.00" d=" M 544.53 109.47 C 553.34 109.46 562.13 110.50 570.82 111.88 C 570.32 112.86 569.83 113.85 569.34 114.84 C 573.19 115.75 577.11 116.36 581.06 116.68 C 586.28 117.11 591.32 118.58 596.44 119.60 C 602.43 120.67 607.51 124.32 613.39 125.75 C 618.90 127.43 624.91 127.26 630.13 129.90 C 634.19 131.88 638.10 134.38 642.61 135.20 C 646.87 136.16 651.56 135.83 655.42 138.15 C 660.33 141.22 665.00 144.93 668.05 149.95 C 670.19 153.65 674.27 156.65 674.18 161.29 C 674.19 166.02 676.99 170.24 676.66 175.00 C 676.57 178.47 676.93 181.93 677.42 185.36 C 679.02 185.25 680.66 184.91 682.28 185.22 C 685.65 187.67 688.34 190.95 691.66 193.50 C 690.10 194.31 688.55 195.12 687.01 195.94 C 690.62 198.95 695.26 201.98 695.35 207.23 C 675.14 194.53 653.64 183.80 631.04 176.04 C 631.54 175.13 632.05 174.23 632.57 173.33 C 628.53 171.98 624.37 170.37 621.77 166.80 C 618.56 165.47 615.39 163.90 611.96 163.27 C 609.46 163.20 607.05 163.92 604.66 164.51 C 604.91 163.59 605.16 162.68 605.43 161.77 C 600.06 162.38 594.23 163.31 589.51 159.99 C 589.58 157.40 589.67 154.82 589.75 152.24 C 583.86 151.99 577.95 152.45 572.09 151.69 C 574.36 149.15 576.43 146.21 579.53 144.60 C 583.40 143.49 587.51 144.01 591.50 144.00 C 591.23 140.21 591.00 136.42 590.72 132.64 C 587.30 133.31 583.99 134.42 580.73 135.64 C 576.74 137.09 572.46 135.99 568.38 135.60 C 567.60 130.97 567.87 126.14 566.41 121.64 C 563.58 119.31 559.89 118.17 556.68 116.40 C 553.15 114.44 549.02 115.19 545.18 114.68 C 542.83 114.47 540.91 112.99 538.93 111.85 C 540.78 111.02 542.63 110.19 544.53 109.47 Z" />
</g>
<g id="#599f2bff">
<path fill="#599f2b" opacity="1.00" d=" M 570.82 111.88 C 587.02 113.91 603.06 117.11 618.90 121.09 C 632.82 125.23 646.87 129.09 660.31 134.70 C 677.30 140.85 693.75 148.49 709.32 157.67 C 717.91 162.75 726.78 167.39 735.04 173.02 C 744.49 179.71 754.29 185.99 763.04 193.62 C 759.79 196.84 756.14 199.70 753.34 203.34 C 751.56 205.32 752.89 207.97 753.22 210.23 C 754.49 214.89 753.81 219.71 753.59 224.45 C 753.39 227.73 755.09 230.66 755.98 233.73 C 757.54 238.38 757.68 243.51 760.25 247.80 C 762.46 252.13 768.07 253.42 770.00 257.95 C 771.40 261.38 772.62 264.88 774.38 268.15 C 773.52 269.20 772.65 270.25 771.80 271.30 C 762.01 261.06 752.37 250.61 741.61 241.37 C 727.31 228.55 711.42 217.69 695.35 207.23 C 695.26 201.98 690.62 198.95 687.01 195.94 C 688.55 195.12 690.10 194.31 691.66 193.50 C 688.34 190.95 685.65 187.67 682.28 185.22 C 680.66 184.91 679.02 185.25 677.42 185.36 C 676.93 181.93 676.57 178.47 676.66 175.00 C 676.99 170.24 674.19 166.02 674.18 161.29 C 674.27 156.65 670.19 153.65 668.05 149.95 C 665.00 144.93 660.33 141.22 655.42 138.15 C 651.56 135.83 646.87 136.16 642.61 135.20 C 638.10 134.38 634.19 131.88 630.13 129.90 C 624.91 127.26 618.90 127.43 613.39 125.75 C 607.51 124.32 602.43 120.67 596.44 119.60 C 591.32 118.58 586.28 117.11 581.06 116.68 C 577.11 116.36 573.19 115.75 569.34 114.84 C 569.83 113.85 570.32 112.86 570.82 111.88 Z" />
</g>
<g id="#559629ff">
<path fill="#559629" opacity="1.00" d=" M 753.34 203.34 C 756.14 199.70 759.79 196.84 763.04 193.62 C 776.70 205.37 790.74 216.79 802.78 230.26 C 810.80 238.88 818.82 247.52 826.40 256.54 C 840.05 273.95 852.68 292.17 864.42 310.92 C 863.87 311.03 862.78 311.26 862.23 311.37 C 861.23 309.50 860.22 307.64 859.19 305.80 C 858.28 307.45 857.37 309.24 857.75 311.19 C 857.56 312.47 858.60 314.39 857.16 315.15 C 854.56 315.81 851.84 315.64 849.19 315.63 C 849.87 318.25 850.35 320.95 851.44 323.45 C 853.27 327.01 856.87 330.03 855.90 334.46 C 853.68 334.76 851.47 335.06 849.26 335.38 C 849.09 338.28 848.92 341.18 848.76 344.09 C 848.39 342.80 848.03 341.52 847.68 340.25 C 844.79 344.18 843.31 348.91 844.09 353.80 C 844.89 354.07 845.70 354.34 846.53 354.62 C 849.23 351.74 853.04 351.67 856.70 352.21 C 857.48 358.80 856.80 365.46 855.72 371.98 C 855.24 375.00 852.64 377.12 851.89 380.02 C 852.06 383.38 856.63 384.62 856.80 388.05 C 857.11 392.84 857.17 397.66 858.10 402.40 C 859.65 402.48 861.21 402.57 862.78 402.66 C 862.40 406.99 862.36 411.34 861.99 415.68 C 863.91 416.29 865.83 416.90 867.77 417.50 C 868.47 424.20 867.29 431.00 868.47 437.65 C 869.17 441.65 872.06 444.75 875.84 446.09 C 874.57 447.44 873.15 448.69 872.27 450.34 C 871.40 455.66 873.08 460.91 875.08 465.77 C 876.86 469.80 875.96 474.27 875.70 478.50 C 873.41 479.46 871.13 480.44 868.86 481.43 C 871.98 493.12 870.18 505.27 868.06 516.96 C 868.12 526.28 867.56 535.68 864.92 544.69 C 864.36 545.60 863.81 546.51 863.26 547.43 C 863.29 546.52 863.34 544.69 863.36 543.78 C 865.23 526.00 864.66 508.10 862.87 490.34 C 861.17 461.08 856.17 431.98 847.30 404.02 C 842.31 384.17 833.69 365.54 824.75 347.22 C 818.85 336.59 813.09 325.85 806.25 315.78 C 801.12 307.12 794.56 299.45 788.66 291.32 C 783.53 284.25 777.64 277.79 771.80 271.30 C 772.65 270.25 773.52 269.20 774.38 268.15 C 772.62 264.88 771.40 261.38 770.00 257.95 C 768.07 253.42 762.46 252.13 760.25 247.80 C 757.68 243.51 757.54 238.38 755.98 233.73 C 755.09 230.66 753.39 227.73 753.59 224.45 C 753.81 219.71 754.49 214.89 753.22 210.23 C 752.89 207.97 751.56 205.32 753.34 203.34 Z" />
</g>
<g id="#b2d24bff">
<path fill="#b2d24b" opacity="1.00" d=" M 212.33 244.16 C 216.77 241.49 222.09 242.76 226.94 242.86 C 237.97 243.14 249.01 243.01 260.04 242.91 C 262.90 242.85 265.66 243.71 268.36 244.54 C 264.57 248.73 261.20 253.28 258.29 258.13 C 256.93 256.96 255.58 255.79 254.22 254.64 C 253.50 257.27 253.10 259.99 253.23 262.72 C 250.14 266.68 247.44 270.96 243.75 274.41 C 243.55 272.59 243.36 270.76 243.14 268.95 C 239.77 268.89 236.86 270.42 234.53 272.77 C 236.66 274.70 238.81 276.61 240.98 278.50 C 234.52 282.39 232.08 289.79 229.69 296.49 C 224.31 305.66 216.94 313.50 211.86 322.86 C 208.11 329.12 203.68 334.97 200.48 341.56 C 194.24 352.38 189.47 363.94 184.25 375.26 C 180.90 382.32 179.73 390.16 176.35 397.21 C 175.47 398.38 174.54 399.52 173.63 400.68 C 172.00 399.56 170.28 398.53 168.90 397.11 C 167.29 393.73 167.52 389.85 166.60 386.29 C 166.27 383.90 163.45 383.35 161.80 382.08 C 161.18 380.67 160.57 379.26 159.96 377.86 C 159.52 377.72 158.65 377.44 158.21 377.31 C 153.58 381.82 148.96 386.35 144.62 391.15 C 148.05 391.88 151.49 392.57 154.93 393.25 C 154.85 395.04 154.77 396.83 154.69 398.63 C 147.37 399.06 139.41 400.39 132.81 396.31 C 129.89 399.13 128.65 403.01 128.07 406.93 C 127.20 405.81 126.33 404.69 125.46 403.59 C 124.61 405.00 123.34 406.28 123.02 407.94 C 123.79 410.26 125.14 412.35 125.68 414.76 C 125.73 418.09 124.65 421.31 123.79 424.50 C 120.48 421.66 121.16 417.22 121.46 413.36 C 120.17 414.20 118.87 415.04 117.61 415.93 C 118.53 409.50 120.63 403.33 122.24 397.05 C 124.64 389.48 126.13 381.60 129.44 374.33 C 134.63 362.73 137.90 350.30 144.06 339.12 C 150.37 326.04 156.88 312.99 164.82 300.81 C 170.10 293.34 174.21 285.10 179.85 277.88 C 185.43 270.15 191.05 262.45 197.05 255.05 C 198.24 253.65 199.40 252.17 201.00 251.23 C 204.97 249.17 208.56 246.51 212.33 244.16 Z" />
</g>
<g id="#0c342bff">
<path fill="#0c342b" opacity="1.00" d=" M 655.24 254.11 C 657.88 250.94 661.04 248.17 663.39 244.72 C 663.25 255.84 665.92 266.69 667.64 277.61 C 670.30 295.35 673.94 312.99 674.91 330.94 C 674.32 331.59 673.73 332.25 673.16 332.92 C 673.27 325.46 671.43 318.23 670.20 310.94 C 669.27 301.28 665.39 292.30 662.87 283.01 C 659.88 276.57 662.54 269.52 661.49 262.80 C 661.27 259.66 659.98 256.78 658.56 254.03 C 657.23 254.54 655.91 255.05 654.60 255.55 C 654.76 255.19 655.08 254.47 655.24 254.11 Z" />
</g>
<g id="#0a3f36ff">
<path fill="#0a3f36" opacity="1.00" d=" M 608.55 286.52 C 625.28 277.55 641.21 266.95 655.24 254.11 C 655.08 254.47 654.76 255.19 654.60 255.55 C 655.91 255.05 657.23 254.54 658.56 254.03 C 659.98 256.78 661.27 259.66 661.49 262.80 C 662.54 269.52 659.88 276.57 662.87 283.01 C 665.39 292.30 669.27 301.28 670.20 310.94 C 671.43 318.23 673.27 325.46 673.16 332.92 C 673.73 332.25 674.32 331.59 674.91 330.94 C 676.84 352.33 674.38 373.99 668.71 394.66 C 665.71 404.35 661.39 413.58 656.50 422.44 C 652.14 430.15 646.28 436.83 640.31 443.31 C 636.30 447.16 632.01 450.84 627.05 453.43 C 627.60 450.92 628.47 448.48 629.96 446.35 C 628.58 444.87 627.08 443.52 625.48 442.30 C 627.36 441.60 629.25 440.91 631.16 440.28 C 628.10 440.08 625.05 439.83 622.00 439.89 C 634.00 430.34 643.81 417.73 649.03 403.21 C 653.27 391.11 655.86 378.49 657.73 365.82 C 659.18 356.27 658.78 346.57 657.99 336.98 C 657.16 327.63 656.51 318.26 655.00 308.99 C 653.85 302.27 654.44 295.27 652.20 288.74 C 652.15 288.38 652.06 287.67 652.02 287.31 C 650.15 289.13 648.26 290.95 646.13 292.46 C 623.23 306.64 599.00 318.98 578.02 336.04 C 566.23 346.61 554.93 358.01 546.35 371.41 C 542.79 375.97 539.58 380.80 536.89 385.92 C 529.56 399.07 525.22 413.56 521.89 428.17 C 520.69 426.13 519.56 424.06 518.54 421.93 C 518.76 424.90 518.28 427.86 517.23 430.65 C 515.77 427.58 514.47 424.46 513.21 421.32 C 512.21 421.70 511.23 422.10 510.24 422.50 C 510.01 420.29 509.76 418.09 509.60 415.88 C 509.55 409.05 510.27 402.17 511.84 395.52 C 514.36 387.07 516.59 378.46 520.54 370.54 C 528.60 353.92 540.07 339.10 553.21 326.19 C 564.30 315.74 576.23 305.99 589.53 298.47 C 595.85 294.45 602.11 290.34 608.55 286.52 Z" />
</g>
<g id="#84ab0dff">
<path fill="#84ab0d" opacity="1.00" d=" M 646.13 292.46 C 648.26 290.95 650.15 289.13 652.02 287.31 C 652.06 287.67 652.15 288.38 652.20 288.74 C 652.01 292.08 651.81 295.44 652.22 298.77 C 653.77 311.52 656.25 324.18 656.55 337.04 C 656.78 351.64 657.13 366.44 653.58 380.72 C 650.06 395.56 646.29 411.22 636.25 423.17 C 633.43 424.28 630.36 425.04 627.97 427.01 C 625.70 428.72 623.75 431.06 620.91 431.84 C 617.83 432.83 614.68 433.57 611.59 434.48 C 610.93 436.43 610.27 438.39 609.60 440.34 C 602.47 441.50 596.34 445.96 589.05 446.64 C 589.64 445.70 590.22 444.76 590.86 443.86 C 595.05 441.01 599.20 438.06 602.95 434.64 C 608.89 429.38 614.75 423.98 619.86 417.88 C 625.70 410.90 629.75 402.66 633.41 394.38 C 636.31 387.81 638.62 380.97 640.04 373.93 C 642.13 363.28 644.52 352.67 645.61 341.87 C 647.04 325.43 645.98 308.93 646.13 292.46 Z" />
</g>
<g id="#23460eff">
<path fill="#23460e" opacity="1.00" d=" M 652.20 288.74 C 654.44 295.27 653.85 302.27 655.00 308.99 C 656.51 318.26 657.16 327.63 657.99 336.98 C 658.78 346.57 659.18 356.27 657.73 365.82 C 655.86 378.49 653.27 391.11 649.03 403.21 C 643.81 417.73 634.00 430.34 622.00 439.89 C 616.00 443.70 610.07 447.69 603.52 450.48 C 592.02 455.38 580.49 460.37 568.23 463.01 C 557.25 466.68 545.91 468.91 534.63 471.41 C 534.14 471.50 533.15 471.68 532.65 471.77 C 537.30 469.06 542.63 468.06 547.78 466.74 C 567.29 462.03 586.90 456.83 605.04 448.05 C 617.29 442.45 628.01 433.80 636.25 423.17 C 646.29 411.22 650.06 395.56 653.58 380.72 C 657.13 366.44 656.78 351.64 656.55 337.04 C 656.25 324.18 653.77 311.52 652.22 298.77 C 651.81 295.44 652.01 292.08 652.20 288.74 Z" />
</g>
<g id="#a6d035ff">
<path fill="#a6d035" opacity="1.00" d=" M 578.02 336.04 C 599.00 318.98 623.23 306.64 646.13 292.46 C 645.98 308.93 647.04 325.43 645.61 341.87 C 644.52 352.67 642.13 363.28 640.04 373.93 C 638.62 380.97 636.31 387.81 633.41 394.38 C 629.75 402.66 625.70 410.90 619.86 417.88 C 614.75 423.98 608.89 429.38 602.95 434.64 C 600.81 431.40 600.04 427.62 601.11 423.87 C 599.39 423.34 597.67 422.83 595.96 422.34 C 597.20 420.89 598.91 419.70 599.64 417.89 C 600.02 415.47 599.54 413.04 599.35 410.63 C 597.85 413.60 597.01 417.15 594.53 419.49 C 590.91 420.90 586.91 421.38 583.60 423.55 C 579.35 426.20 574.91 428.54 570.22 430.30 C 574.58 425.84 577.09 419.84 577.16 413.60 C 576.12 413.47 575.09 413.35 574.07 413.23 C 573.83 411.87 573.58 410.52 573.26 409.19 C 581.11 403.09 585.08 393.68 590.91 385.90 C 594.57 381.12 597.12 375.58 601.07 371.02 C 604.53 367.17 605.56 361.84 609.02 357.99 C 613.05 353.43 614.08 347.23 617.23 342.15 C 618.69 339.86 619.76 337.34 620.41 334.70 C 618.25 337.49 616.30 340.43 614.41 343.41 C 610.52 346.26 608.20 350.54 605.33 354.30 C 596.46 366.26 586.94 377.81 576.04 387.99 C 573.16 387.46 570.45 388.34 568.74 390.77 C 569.24 387.87 570.55 385.12 570.81 382.17 C 570.33 380.52 569.04 379.24 568.13 377.83 C 571.01 374.67 573.71 371.35 576.24 367.91 C 574.58 367.36 572.96 366.69 571.23 366.46 C 569.83 367.02 568.62 367.96 567.44 368.89 C 564.79 365.50 562.35 361.75 558.67 359.39 C 552.93 361.36 552.52 370.11 546.35 371.41 C 554.93 358.01 566.23 346.61 578.02 336.04 Z" />
</g>
<g id="#579023ff">
<path fill="#579023" opacity="1.00" d=" M 857.75 311.19 C 857.37 309.24 858.28 307.45 859.19 305.80 C 860.22 307.64 861.23 309.50 862.23 311.37 C 862.78 311.26 863.87 311.03 864.42 310.92 C 871.57 323.68 878.08 336.79 883.76 350.28 C 887.68 358.37 890.58 366.88 893.68 375.31 C 897.60 384.06 899.78 393.43 902.46 402.60 C 911.56 435.28 916.74 469.07 917.34 503.00 C 917.25 510.94 917.71 518.92 916.74 526.83 C 915.77 559.76 911.63 592.85 901.63 624.34 C 901.41 621.89 900.96 619.45 901.12 616.99 C 901.53 613.81 903.20 610.94 903.50 607.74 C 903.73 603.89 901.07 600.83 899.51 597.56 C 897.75 594.02 899.26 589.56 896.80 586.28 C 894.70 583.27 892.14 580.64 889.77 577.87 C 889.99 576.68 890.22 575.50 890.45 574.33 C 887.88 568.52 890.86 561.04 885.62 556.41 C 881.81 552.91 880.05 548.02 878.90 543.11 C 876.31 544.96 873.83 547.02 870.96 548.41 C 869.13 547.72 867.97 546.01 866.59 544.73 C 866.18 544.72 865.34 544.70 864.92 544.69 C 867.56 535.68 868.12 526.28 868.06 516.96 C 870.18 505.27 871.98 493.12 868.86 481.43 C 871.13 480.44 873.41 479.46 875.70 478.50 C 875.96 474.27 876.86 469.80 875.08 465.77 C 873.08 460.91 871.40 455.66 872.27 450.34 C 873.15 448.69 874.57 447.44 875.84 446.09 C 872.06 444.75 869.17 441.65 868.47 437.65 C 867.29 431.00 868.47 424.20 867.77 417.50 C 865.83 416.90 863.91 416.29 861.99 415.68 C 862.36 411.34 862.40 406.99 862.78 402.66 C 861.21 402.57 859.65 402.48 858.10 402.40 C 857.17 397.66 857.11 392.84 856.80 388.05 C 856.63 384.62 852.06 383.38 851.89 380.02 C 852.64 377.12 855.24 375.00 855.72 371.98 C 856.80 365.46 857.48 358.80 856.70 352.21 C 853.04 351.67 849.23 351.74 846.53 354.62 C 845.70 354.34 844.89 354.07 844.09 353.80 C 843.31 348.91 844.79 344.18 847.68 340.25 C 848.03 341.52 848.39 342.80 848.76 344.09 C 848.92 341.18 849.09 338.28 849.26 335.38 C 851.47 335.06 853.68 334.76 855.90 334.46 C 856.87 330.03 853.27 327.01 851.44 323.45 C 850.35 320.95 849.87 318.25 849.19 315.63 C 851.84 315.64 854.56 315.81 857.16 315.15 C 858.60 314.39 857.56 312.47 857.75 311.19 Z" />
</g>
<g id="#0b4038ff">
<path fill="#0b4038" opacity="1.00" d=" M 287.59 325.58 C 301.82 316.11 319.31 313.98 335.98 313.16 C 358.87 312.72 381.98 316.20 403.41 324.39 C 421.69 330.68 438.68 340.31 454.19 351.80 C 466.95 362.03 478.06 374.30 487.00 388.00 C 493.40 398.51 498.17 410.01 501.13 421.96 C 505.63 436.38 507.31 451.43 510.62 466.11 C 510.53 463.79 510.40 461.47 510.25 459.15 C 512.34 460.44 514.43 461.75 516.52 463.07 C 517.11 460.82 517.72 458.58 518.38 456.36 C 524.29 442.81 534.22 431.66 543.61 420.45 C 551.66 411.43 560.65 403.36 569.42 395.07 C 572.04 394.38 574.61 393.49 577.14 392.50 C 574.57 398.21 571.32 403.82 571.11 410.25 C 565.49 418.51 558.97 426.12 553.24 434.30 C 548.20 440.69 543.49 447.33 538.66 453.87 C 533.77 460.77 529.58 468.16 525.94 475.79 C 528.12 474.37 530.31 472.93 532.65 471.77 C 533.15 471.68 534.14 471.50 534.63 471.41 C 532.07 473.70 530.72 476.90 528.62 479.55 C 522.91 479.58 518.64 474.75 514.09 471.87 C 512.99 472.52 511.90 473.19 510.81 473.87 C 512.63 475.60 514.46 477.32 516.28 479.06 C 514.28 480.24 512.30 481.45 510.34 482.70 C 508.86 480.83 506.94 479.14 506.22 476.81 C 505.45 472.72 506.12 468.54 505.48 464.44 C 505.03 461.64 503.53 459.18 502.26 456.71 C 500.85 458.00 499.45 459.30 498.05 460.60 C 496.64 459.73 495.22 458.86 493.82 458.00 C 492.47 461.14 491.26 464.33 490.27 467.60 C 487.27 467.79 484.29 467.99 481.30 468.22 C 481.52 467.68 481.95 466.60 482.17 466.06 C 483.04 465.42 483.91 464.78 484.79 464.15 C 482.24 459.84 479.04 455.99 475.94 452.08 C 473.03 447.91 469.49 444.23 465.62 440.94 C 459.94 436.11 455.12 430.38 449.63 425.34 C 443.66 419.53 437.20 414.23 431.58 408.06 C 435.19 409.74 438.68 411.65 442.28 413.35 C 442.62 410.68 443.11 408.02 443.98 405.47 C 452.14 410.24 458.40 417.47 465.50 423.60 C 470.61 427.84 474.50 433.45 480.26 436.91 C 482.27 438.99 484.21 441.13 486.17 443.26 C 484.77 435.56 483.76 427.63 480.30 420.52 C 473.69 405.14 464.96 390.31 452.46 378.98 C 444.59 371.93 435.81 366.00 427.10 360.06 C 409.43 348.17 389.22 340.45 368.31 336.63 C 360.22 334.98 352.02 333.82 343.78 333.24 C 344.64 333.05 346.35 332.69 347.20 332.51 C 339.39 331.68 331.28 330.76 323.63 333.12 C 321.76 333.33 319.89 333.52 318.02 333.70 C 331.59 347.65 338.02 366.34 346.58 383.39 C 353.48 397.99 362.92 411.31 373.81 423.19 C 376.62 426.19 379.70 428.91 382.93 431.45 C 390.84 438.67 400.06 444.45 410.25 447.86 C 406.63 447.78 402.93 447.88 399.46 446.71 C 396.14 445.83 392.89 444.17 389.39 444.39 C 387.54 445.27 386.00 446.65 384.40 447.90 C 370.93 438.90 358.85 427.79 349.44 414.56 C 339.49 401.13 333.31 385.47 326.88 370.17 C 323.10 360.69 318.73 350.91 311.03 343.93 C 306.21 339.36 299.41 338.10 293.09 337.09 C 286.63 335.97 280.04 336.59 273.55 335.98 C 279.44 334.26 282.49 328.56 287.59 325.58 Z" />
</g>
<g id="#0d3c0eff">
<path fill="#0d3c0e" opacity="1.00" d=" M 323.63 333.12 C 331.28 330.76 339.39 331.68 347.20 332.51 C 346.35 332.69 344.64 333.05 343.78 333.24 C 337.06 333.11 330.35 333.08 323.63 333.12 Z" />
</g>
<g id="#aed55aff">
<path fill="#aed55a" opacity="1.00" d=" M 318.02 333.70 C 319.89 333.52 321.76 333.33 323.63 333.12 C 330.35 333.08 337.06 333.11 343.78 333.24 C 352.02 333.82 360.22 334.98 368.31 336.63 C 362.74 337.17 357.09 337.49 351.54 336.54 C 344.68 335.63 337.46 333.10 330.69 335.83 C 328.85 336.54 326.27 338.20 327.55 340.49 C 329.57 343.36 332.06 346.01 332.84 349.56 C 334.51 356.14 339.26 361.29 341.50 367.63 C 343.50 373.34 346.13 378.78 348.90 384.15 C 351.42 389.45 355.40 393.90 357.81 399.28 C 359.70 403.45 362.33 407.23 365.30 410.70 C 369.58 415.71 373.25 421.35 378.55 425.38 C 380.65 426.88 382.22 428.95 382.93 431.45 C 379.70 428.91 376.62 426.19 373.81 423.19 C 362.92 411.31 353.48 397.99 346.58 383.39 C 338.02 366.34 331.59 347.65 318.02 333.70 Z" />
<path fill="#aed55a" opacity="1.00" d=" M 614.41 343.41 C 616.30 340.43 618.25 337.49 620.41 334.70 C 619.76 337.34 618.69 339.86 617.23 342.15 C 614.08 347.23 613.05 353.43 609.02 357.99 C 605.56 361.84 604.53 367.17 601.07 371.02 C 597.12 375.58 594.57 381.12 590.91 385.90 C 585.08 393.68 581.11 403.09 573.26 409.19 L 572.69 408.37 C 588.68 388.15 602.38 366.18 614.41 343.41 Z" />
<path fill="#aed55a" opacity="1.00" d=" M 415.22 394.66 C 419.54 397.64 423.58 401.02 427.49 404.54 C 428.82 405.75 430.18 406.92 431.58 408.06 C 437.20 414.23 443.66 419.53 449.63 425.34 C 455.12 430.38 459.94 436.11 465.62 440.94 C 465.30 441.39 464.66 442.29 464.34 442.74 C 462.85 441.94 461.36 441.13 459.85 440.37 C 460.47 440.14 461.71 439.69 462.33 439.46 C 453.46 432.03 445.62 423.50 437.00 415.79 C 429.95 408.52 420.96 403.12 415.22 394.66 Z" />
</g>
<g id="#abd139ff">
<path fill="#abd139" opacity="1.00" d=" M 330.69 335.83 C 337.46 333.10 344.68 335.63 351.54 336.54 C 357.09 337.49 362.74 337.17 368.31 336.63 C 389.22 340.45 409.43 348.17 427.10 360.06 C 424.82 362.18 422.53 364.29 420.23 366.40 C 421.09 367.00 421.94 367.61 422.83 368.19 C 415.15 366.58 407.56 363.72 399.58 364.37 C 402.40 365.64 405.23 366.92 408.24 367.68 C 403.10 366.65 397.67 367.45 393.63 370.99 C 397.18 374.10 401.28 376.55 405.83 377.88 C 404.92 378.36 404.01 378.84 403.11 379.32 C 393.06 373.34 382.55 367.96 371.59 363.84 C 376.34 367.52 381.84 370.02 386.97 373.09 C 394.85 377.78 401.77 383.86 409.44 388.86 C 411.33 390.83 413.28 392.73 415.22 394.66 C 420.96 403.12 429.95 408.52 437.00 415.79 C 435.34 416.38 433.69 416.98 432.04 417.58 C 431.99 415.83 431.95 414.08 431.91 412.33 C 430.31 413.44 428.71 414.56 427.11 415.67 C 424.97 413.84 422.44 412.58 419.73 411.87 C 419.39 413.74 419.08 415.62 418.76 417.50 C 412.72 415.51 406.41 414.72 400.13 413.94 C 399.60 416.76 399.04 419.58 398.41 422.39 C 396.68 423.39 394.89 424.32 393.32 425.57 C 392.43 427.02 393.74 428.31 394.48 429.47 C 396.59 432.27 398.89 434.91 400.95 437.75 C 400.12 438.65 399.30 439.56 398.48 440.47 C 406.00 443.64 413.51 446.80 421.16 449.63 C 420.35 449.73 418.73 449.93 417.92 450.03 C 415.36 449.31 412.82 448.53 410.25 447.86 C 400.06 444.45 390.84 438.67 382.93 431.45 C 382.22 428.95 380.65 426.88 378.55 425.38 C 373.25 421.35 369.58 415.71 365.30 410.70 C 362.33 407.23 359.70 403.45 357.81 399.28 C 355.40 393.90 351.42 389.45 348.90 384.15 C 346.13 378.78 343.50 373.34 341.50 367.63 C 339.26 361.29 334.51 356.14 332.84 349.56 C 332.06 346.01 329.57 343.36 327.55 340.49 C 326.27 338.20 328.85 336.54 330.69 335.83 Z" />
</g>
<g id="#154e3dff">
<path fill="#154e3d" opacity="1.00" d=" M 605.33 354.30 C 608.20 350.54 610.52 346.26 614.41 343.41 C 602.38 366.18 588.68 388.15 572.69 408.37 C 572.30 408.84 571.51 409.78 571.11 410.25 C 571.32 403.82 574.57 398.21 577.14 392.50 C 574.61 393.49 572.04 394.38 569.42 395.07 C 571.64 392.72 573.77 390.29 576.04 387.99 C 586.94 377.81 596.46 366.26 605.33 354.30 Z" />
</g>
<g id="#9fc01dff">
<path fill="#9fc01d" opacity="1.00" d=" M 546.35 371.41 C 552.52 370.11 552.93 361.36 558.67 359.39 C 562.35 361.75 564.79 365.50 567.44 368.89 C 563.04 372.97 559.19 377.60 555.30 382.17 C 554.41 381.81 553.53 381.46 552.66 381.12 C 551.61 379.10 550.62 377.07 549.68 375.02 C 549.27 376.51 548.87 378.00 548.46 379.49 C 546.12 380.33 543.57 380.95 541.67 382.63 C 539.89 384.77 539.27 387.57 538.42 390.16 C 537.93 388.73 537.42 387.32 536.89 385.92 C 539.58 380.80 542.79 375.97 546.35 371.41 Z" />
</g>
<g id="#93c32aff">
<path fill="#93c32a" opacity="1.00" d=" M 427.10 360.06 C 435.81 366.00 444.59 371.93 452.46 378.98 C 449.79 378.97 447.12 378.97 444.45 378.97 C 444.45 380.12 444.46 381.26 444.47 382.42 C 437.82 376.90 430.48 372.20 422.83 368.19 C 421.94 367.61 421.09 367.00 420.23 366.40 C 422.53 364.29 424.82 362.18 427.10 360.06 Z" />
</g>
<g id="#0f4c48ff">
<path fill="#0f4c48" opacity="1.00" d=" M 371.59 363.84 C 382.55 367.96 393.06 373.34 403.11 379.32 C 412.63 385.36 422.76 390.41 432.06 396.79 C 435.58 400.26 439.69 403.02 443.98 405.47 C 443.11 408.02 442.62 410.68 442.28 413.35 C 438.68 411.65 435.19 409.74 431.58 408.06 C 430.18 406.92 428.82 405.75 427.49 404.54 C 427.29 401.01 424.34 398.79 421.87 396.70 C 424.24 397.61 426.69 398.24 429.15 398.86 C 425.21 392.33 417.65 389.46 410.48 388.18 C 410.94 386.47 409.08 384.89 407.46 385.13 C 407.52 386.29 408.42 387.20 408.98 388.18 L 409.44 388.86 C 401.77 383.86 394.85 377.78 386.97 373.09 C 381.84 370.02 376.34 367.52 371.59 363.84 Z" />
</g>
<g id="#b7d986ff">
<path fill="#b7d986" opacity="1.00" d=" M 399.58 364.37 C 407.56 363.72 415.15 366.58 422.83 368.19 C 430.48 372.20 437.82 376.90 444.47 382.42 C 449.55 387.55 454.28 393.23 457.19 399.92 C 454.02 396.42 451.06 392.72 447.60 389.51 C 443.91 386.17 439.76 383.38 435.64 380.59 C 427.45 374.55 418.14 370.10 408.24 367.68 C 405.23 366.92 402.40 365.64 399.58 364.37 Z" />
</g>
<g id="#cae8a8ff">
<path fill="#cae8a8" opacity="1.00" d=" M 567.44 368.89 C 568.62 367.96 569.83 367.02 571.23 366.46 C 572.96 366.69 574.58 367.36 576.24 367.91 C 573.71 371.35 571.01 374.67 568.13 377.83 C 564.92 381.38 561.56 384.81 558.29 388.31 C 554.07 392.76 550.69 397.96 546.11 402.08 C 546.04 401.53 545.90 400.42 545.83 399.87 C 548.63 393.80 551.22 387.51 555.30 382.17 C 559.19 377.60 563.04 372.97 567.44 368.89 Z" />
</g>
<g id="#a1cb25ff">
<path fill="#a1cb25" opacity="1.00" d=" M 393.63 370.99 C 397.67 367.45 403.10 366.65 408.24 367.68 C 418.14 370.10 427.45 374.55 435.64 380.59 C 434.07 381.87 432.51 383.16 430.93 384.41 C 432.37 386.28 433.81 388.15 435.26 390.02 C 433.93 391.18 432.60 392.35 431.27 393.52 C 434.34 395.32 438.31 396.61 439.49 400.36 C 437.05 399.08 434.52 398.01 432.06 396.79 C 422.76 390.41 412.63 385.36 403.11 379.32 C 404.01 378.84 404.92 378.36 405.83 377.88 C 401.28 376.55 397.18 374.10 393.63 370.99 Z" />
</g>
<g id="#91b10cff">
<path fill="#91b10c" opacity="1.00" d=" M 549.68 375.02 C 550.62 377.07 551.61 379.10 552.66 381.12 C 553.53 381.46 554.41 381.81 555.30 382.17 C 551.22 387.51 548.63 393.80 545.83 399.87 C 544.81 401.79 544.61 403.94 544.96 406.06 C 545.89 410.98 542.55 415.52 543.61 420.45 C 534.22 431.66 524.29 442.81 518.38 456.36 C 518.30 446.85 519.91 437.44 521.89 428.17 C 525.22 413.56 529.56 399.07 536.89 385.92 C 537.42 387.32 537.93 388.73 538.42 390.16 C 539.27 387.57 539.89 384.77 541.67 382.63 C 543.57 380.95 546.12 380.33 548.46 379.49 C 548.87 378.00 549.27 376.51 549.68 375.02 Z" />
</g>
<g id="#aed040ff">
<path fill="#aed040" opacity="1.00" d=" M 158.21 377.31 C 158.65 377.44 159.52 377.72 159.96 377.86 C 160.57 379.26 161.18 380.67 161.80 382.08 C 163.45 383.35 166.27 383.90 166.60 386.29 C 167.52 389.85 167.29 393.73 168.90 397.11 C 170.28 398.53 172.00 399.56 173.63 400.68 C 174.54 399.52 175.47 398.38 176.35 397.21 C 168.91 422.58 163.22 448.57 161.04 474.96 C 159.40 495.94 158.52 517.05 159.95 538.07 C 160.32 542.09 160.32 546.12 160.36 550.15 C 158.87 544.70 157.45 539.21 156.40 533.66 C 155.72 529.89 157.33 526.26 157.61 522.54 C 157.93 519.77 156.33 517.30 155.33 514.84 C 154.51 518.69 153.95 522.59 153.59 526.52 C 151.60 528.12 149.61 529.73 147.62 531.34 C 146.09 530.64 144.55 529.95 143.02 529.28 C 139.52 530.82 135.76 531.57 131.98 531.99 C 128.05 532.33 124.74 534.63 121.52 536.70 C 120.24 541.69 119.25 546.77 117.64 551.68 C 116.47 555.26 114.47 558.55 113.71 562.26 C 113.41 565.48 114.70 568.64 114.39 571.88 C 114.24 574.61 113.29 577.36 113.97 580.10 C 115.26 585.16 117.34 589.96 119.21 594.83 C 121.31 599.62 118.81 604.90 120.22 609.84 C 121.51 614.51 122.26 619.31 122.19 624.17 C 118.92 616.06 118.24 607.19 115.94 598.78 C 112.59 586.22 110.85 573.32 109.17 560.46 C 107.97 553.68 107.40 546.81 106.68 539.98 C 106.30 528.98 106.42 517.98 105.92 507.00 C 106.29 496.65 106.52 486.30 107.44 476.00 C 107.30 468.02 109.00 460.20 109.71 452.29 C 110.41 445.68 112.06 439.24 113.46 432.76 C 114.73 427.13 115.63 421.37 117.61 415.93 C 118.87 415.04 120.17 414.20 121.46 413.36 C 121.16 417.22 120.48 421.66 123.79 424.50 C 124.65 421.31 125.73 418.09 125.68 414.76 C 125.14 412.35 123.79 410.26 123.02 407.94 C 123.34 406.28 124.61 405.00 125.46 403.59 C 126.33 404.69 127.20 405.81 128.07 406.93 C 128.65 403.01 129.89 399.13 132.81 396.31 C 139.41 400.39 147.37 399.06 154.69 398.63 C 154.77 396.83 154.85 395.04 154.93 393.25 C 151.49 392.57 148.05 391.88 144.62 391.15 C 148.96 386.35 153.58 381.82 158.21 377.31 Z" />
</g>
<g id="#8aac0cff">
<path fill="#8aac0c" opacity="1.00" d=" M 444.45 378.97 C 447.12 378.97 449.79 378.97 452.46 378.98 C 464.96 390.31 473.69 405.14 480.30 420.52 C 479.53 425.25 481.75 429.72 481.94 434.40 C 476.24 429.55 471.56 423.49 464.79 420.00 C 457.40 414.25 450.89 407.38 442.79 402.56 C 445.26 402.86 447.66 402.10 450.00 401.41 C 449.09 397.99 446.93 395.18 445.30 392.12 C 445.99 391.18 446.81 390.35 447.60 389.51 C 451.06 392.72 454.02 396.42 457.19 399.92 C 454.28 393.23 449.55 387.55 444.47 382.42 C 444.46 381.26 444.45 380.12 444.45 378.97 Z" />
</g>
<g id="#95c82cff">
<path fill="#95c82c" opacity="1.00" d=" M 568.13 377.83 C 569.04 379.24 570.33 380.52 570.81 382.17 C 570.55 385.12 569.24 387.87 568.74 390.77 C 570.45 388.34 573.16 387.46 576.04 387.99 C 573.77 390.29 571.64 392.72 569.42 395.07 C 560.65 403.36 551.66 411.43 543.61 420.45 C 542.55 415.52 545.89 410.98 544.96 406.06 C 544.61 403.94 544.81 401.79 545.83 399.87 C 545.90 400.42 546.04 401.53 546.11 402.08 C 550.69 397.96 554.07 392.76 558.29 388.31 C 561.56 384.81 564.92 381.38 568.13 377.83 Z" />
</g>
<g id="#96bf15ff">
<path fill="#96bf15" opacity="1.00" d=" M 430.93 384.41 C 432.51 383.16 434.07 381.87 435.64 380.59 C 439.76 383.38 443.91 386.17 447.60 389.51 C 446.81 390.35 445.99 391.18 445.30 392.12 C 446.93 395.18 449.09 397.99 450.00 401.41 C 447.66 402.10 445.26 402.86 442.79 402.56 C 441.68 401.83 440.60 401.07 439.49 400.36 C 438.31 396.61 434.34 395.32 431.27 393.52 C 432.60 392.35 433.93 391.18 435.26 390.02 C 433.81 388.15 432.37 386.28 430.93 384.41 Z" />
</g>
<g id="#05291eff">
<path fill="#05291e" opacity="1.00" d=" M 408.98 388.18 C 409.36 388.18 410.11 388.18 410.48 388.18 C 414.18 391.15 417.83 394.20 421.87 396.70 C 424.34 398.79 427.29 401.01 427.49 404.54 C 423.58 401.02 419.54 397.64 415.22 394.66 C 413.28 392.73 411.33 390.83 409.44 388.86 L 408.98 388.18 Z" />
<path fill="#05291e" opacity="1.00" d=" M 513.05 519.70 C 514.33 517.08 515.67 514.50 517.14 511.98 C 517.18 512.52 517.25 513.59 517.29 514.12 C 515.40 526.38 513.29 538.70 513.50 551.15 C 512.94 549.15 512.50 547.12 512.32 545.06 C 511.65 535.99 509.92 527.04 508.46 518.07 C 509.97 518.65 511.51 519.17 513.05 519.70 Z" />
</g>
<g id="#1f6e87ff">
<path fill="#1f6e87" opacity="1.00" d=" M 410.48 388.18 C 417.65 389.46 425.21 392.33 429.15 398.86 C 426.69 398.24 424.24 397.61 421.87 396.70 C 417.83 394.20 414.18 391.15 410.48 388.18 Z" />
</g>
<g id="#15420dff">
<path fill="#15420d" opacity="1.00" d=" M 432.06 396.79 C 434.52 398.01 437.05 399.08 439.49 400.36 C 440.60 401.07 441.68 401.83 442.79 402.56 C 450.89 407.38 457.40 414.25 464.79 420.00 C 469.99 425.59 475.73 430.72 480.26 436.91 C 474.50 433.45 470.61 427.84 465.50 423.60 C 458.40 417.47 452.14 410.24 443.98 405.47 C 439.69 403.02 435.58 400.26 432.06 396.79 Z" />
</g>
<g id="#b3d43dff">
<path fill="#b3d43d" opacity="1.00" d=" M 571.11 410.25 C 571.51 409.78 572.30 408.84 572.69 408.37 L 573.26 409.19 C 573.58 410.52 573.83 411.87 574.07 413.23 C 575.09 413.35 576.12 413.47 577.16 413.60 C 577.09 419.84 574.58 425.84 570.22 430.30 C 564.74 432.18 559.23 435.33 553.24 434.30 C 558.97 426.12 565.49 418.51 571.11 410.25 Z" />
</g>
<g id="#a2cb27ff">
<path fill="#a2cb27" opacity="1.00" d=" M 594.53 419.49 C 597.01 417.15 597.85 413.60 599.35 410.63 C 599.54 413.04 600.02 415.47 599.64 417.89 C 598.91 419.70 597.20 420.89 595.96 422.34 C 597.67 422.83 599.39 423.34 601.11 423.87 C 600.04 427.62 600.81 431.40 602.95 434.64 C 599.20 438.06 595.05 441.01 590.86 443.86 C 585.82 446.72 580.73 449.89 574.91 450.79 C 567.19 452.09 559.32 451.56 551.57 452.50 C 547.27 453.03 542.98 453.61 538.66 453.87 C 543.49 447.33 548.20 440.69 553.24 434.30 C 559.23 435.33 564.74 432.18 570.22 430.30 C 574.91 428.54 579.35 426.20 583.60 423.55 C 586.91 421.38 590.91 420.90 594.53 419.49 Z" />
</g>
<g id="#a7cf31ff">
<path fill="#a7cf31" opacity="1.00" d=" M 419.73 411.87 C 422.44 412.58 424.97 413.84 427.11 415.67 C 428.71 414.56 430.31 413.44 431.91 412.33 C 431.95 414.08 431.99 415.83 432.04 417.58 C 433.69 416.98 435.34 416.38 437.00 415.79 C 445.62 423.50 453.46 432.03 462.33 439.46 C 461.71 439.69 460.47 440.14 459.85 440.37 C 450.15 439.60 440.68 437.26 431.03 436.08 C 431.84 437.20 432.66 438.32 433.48 439.44 C 431.21 442.84 431.91 446.94 432.37 450.74 C 437.18 452.15 442.09 453.19 447.00 454.19 C 446.62 454.52 445.87 455.18 445.49 455.51 C 436.25 453.96 426.84 453.06 417.92 450.03 C 418.73 449.93 420.35 449.73 421.16 449.63 C 413.51 446.80 406.00 443.64 398.48 440.47 C 399.30 439.56 400.12 438.65 400.95 437.75 C 398.89 434.91 396.59 432.27 394.48 429.47 C 393.74 428.31 392.43 427.02 393.32 425.57 C 394.89 424.32 396.68 423.39 398.41 422.39 C 399.04 419.58 399.60 416.76 400.13 413.94 C 406.41 414.72 412.72 415.51 418.76 417.50 C 419.08 415.62 419.39 413.74 419.73 411.87 Z" />
</g>
<g id="#17493dff">
<path fill="#17493d" opacity="1.00" d=" M 509.20 426.20 C 509.24 422.76 509.38 419.32 509.60 415.88 C 509.76 418.09 510.01 420.29 510.24 422.50 C 511.23 422.10 512.21 421.70 513.21 421.32 C 514.47 424.46 515.77 427.58 517.23 430.65 C 518.28 427.86 518.76 424.90 518.54 421.93 C 519.56 424.06 520.69 426.13 521.89 428.17 C 519.91 437.44 518.30 446.85 518.38 456.36 C 517.72 458.58 517.11 460.82 516.52 463.07 C 514.43 461.75 512.34 460.44 510.25 459.15 C 509.29 448.19 509.41 437.19 509.20 426.20 Z" />
</g>
<g id="#71962eff">
<path fill="#71962e" opacity="1.00" d=" M 464.79 420.00 C 471.56 423.49 476.24 429.55 481.94 434.40 C 481.75 429.72 479.53 425.25 480.30 420.52 C 483.76 427.63 484.77 435.56 486.17 443.26 C 484.21 441.13 482.27 438.99 480.26 436.91 C 475.73 430.72 469.99 425.59 464.79 420.00 Z" />
</g>
<g id="#f3f9ecff">
<path fill="#f3f9ec" opacity="1.00" d=" M 501.13 421.96 C 503.02 421.81 504.92 421.66 506.81 421.50 C 507.64 423.05 508.50 424.58 509.20 426.20 C 509.41 437.19 509.29 448.19 510.25 459.15 C 510.40 461.47 510.53 463.79 510.62 466.11 C 507.31 451.43 505.63 436.38 501.13 421.96 Z" />
</g>
<g id="#8db10fff">
<path fill="#8db10f" opacity="1.00" d=" M 627.97 427.01 C 630.36 425.04 633.43 424.28 636.25 423.17 C 628.01 433.80 617.29 442.45 605.04 448.05 C 586.90 456.83 567.29 462.03 547.78 466.74 C 542.63 468.06 537.30 469.06 532.65 471.77 C 530.31 472.93 528.12 474.37 525.94 475.79 C 529.58 468.16 533.77 460.77 538.66 453.87 C 542.98 453.61 547.27 453.03 551.57 452.50 C 559.32 451.56 567.19 452.09 574.91 450.79 C 580.73 449.89 585.82 446.72 590.86 443.86 C 590.22 444.76 589.64 445.70 589.05 446.64 C 596.34 445.96 602.47 441.50 609.60 440.34 C 610.27 438.39 610.93 436.43 611.59 434.48 C 614.68 433.57 617.83 432.83 620.91 431.84 C 623.75 431.06 625.70 428.72 627.97 427.01 Z" />
</g>
<g id="#cae194ff">
<path fill="#cae194" opacity="1.00" d=" M 431.03 436.08 C 440.68 437.26 450.15 439.60 459.85 440.37 C 461.36 441.13 462.85 441.94 464.34 442.74 C 458.18 446.23 450.79 443.56 444.22 442.78 C 440.60 441.80 437.06 440.56 433.48 439.44 C 432.66 438.32 431.84 437.20 431.03 436.08 Z" />
</g>
<g id="#98c11dff">
<path fill="#98c11d" opacity="1.00" d=" M 432.37 450.74 C 431.91 446.94 431.21 442.84 433.48 439.44 C 437.06 440.56 440.60 441.80 444.22 442.78 C 442.69 442.92 441.16 443.10 439.65 443.31 C 444.61 449.82 453.39 448.94 460.53 450.61 C 463.84 452.50 466.13 455.78 468.80 458.46 C 468.06 458.42 466.58 458.35 465.84 458.31 C 459.64 457.16 453.39 456.27 447.10 455.81 C 446.70 455.74 445.90 455.59 445.49 455.51 C 445.87 455.18 446.62 454.52 447.00 454.19 C 442.09 453.19 437.18 452.15 432.37 450.74 Z" />
</g>
<g id="#083c3aff">
<path fill="#083c3a" opacity="1.00" d=" M 603.52 450.48 C 610.07 447.69 616.00 443.70 622.00 439.89 C 625.05 439.83 628.10 440.08 631.16 440.28 C 629.25 440.91 627.36 441.60 625.48 442.30 C 627.08 443.52 628.58 444.87 629.96 446.35 C 628.47 448.48 627.60 450.92 627.05 453.43 C 615.21 462.45 600.92 467.78 586.67 471.80 C 574.50 474.76 561.98 476.24 550.02 480.12 C 538.06 483.42 527.56 491.87 521.95 502.96 C 520.02 506.51 518.85 510.40 517.29 514.12 C 517.25 513.59 517.18 512.52 517.14 511.98 C 515.67 514.50 514.33 517.08 513.05 519.70 C 511.51 519.17 509.97 518.65 508.46 518.07 C 505.19 508.51 503.88 497.80 497.26 489.75 C 488.26 479.28 475.27 473.06 461.97 470.11 C 449.96 467.51 437.70 466.37 425.61 464.26 C 410.72 462.52 396.92 455.85 384.40 447.90 C 386.00 446.65 387.54 445.27 389.39 444.39 C 392.89 444.17 396.14 445.83 399.46 446.71 C 402.93 447.88 406.63 447.78 410.25 447.86 C 412.82 448.53 415.36 449.31 417.92 450.03 C 426.84 453.06 436.25 453.96 445.49 455.51 C 445.90 455.59 446.70 455.74 447.10 455.81 C 453.36 458.96 460.49 458.86 467.13 460.71 C 472.31 461.98 477.50 463.41 482.17 466.06 C 481.95 466.60 481.52 467.68 481.30 468.22 C 484.29 467.99 487.27 467.79 490.27 467.60 C 491.26 464.33 492.47 461.14 493.82 458.00 C 495.22 458.86 496.64 459.73 498.05 460.60 C 499.45 459.30 500.85 458.00 502.26 456.71 C 503.53 459.18 505.03 461.64 505.48 464.44 C 506.12 468.54 505.45 472.72 506.22 476.81 C 506.94 479.14 508.86 480.83 510.34 482.70 C 512.30 481.45 514.28 480.24 516.28 479.06 C 514.46 477.32 512.63 475.60 510.81 473.87 C 511.90 473.19 512.99 472.52 514.09 471.87 C 518.64 474.75 522.91 479.58 528.62 479.55 C 530.72 476.90 532.07 473.70 534.63 471.41 C 545.91 468.91 557.25 466.68 568.23 463.01 C 580.49 460.37 592.02 455.38 603.52 450.48 Z" />
</g>
<g id="#8ab314ff">
<path fill="#8ab314" opacity="1.00" d=" M 465.62 440.94 C 469.49 444.23 473.03 447.91 475.94 452.08 C 476.73 454.55 477.36 457.06 478.02 459.57 C 476.59 459.81 475.16 460.04 473.74 460.26 C 471.10 459.63 468.48 458.92 465.84 458.31 C 466.58 458.35 468.06 458.42 468.80 458.46 C 466.13 455.78 463.84 452.50 460.53 450.61 C 453.39 448.94 444.61 449.82 439.65 443.31 C 441.16 443.10 442.69 442.92 444.22 442.78 C 450.79 443.56 458.18 446.23 464.34 442.74 C 464.66 442.29 465.30 441.39 465.62 440.94 Z" />
</g>
<g id="#6b9733ff">
<path fill="#6b9733" opacity="1.00" d=" M 475.94 452.08 C 479.04 455.99 482.24 459.84 484.79 464.15 C 481.12 462.80 477.47 461.40 473.74 460.26 C 475.16 460.04 476.59 459.81 478.02 459.57 C 477.36 457.06 476.73 454.55 475.94 452.08 Z" />
</g>
<g id="#0c3d18ff">
<path fill="#0c3d18" opacity="1.00" d=" M 447.10 455.81 C 453.39 456.27 459.64 457.16 465.84 458.31 C 468.48 458.92 471.10 459.63 473.74 460.26 C 477.47 461.40 481.12 462.80 484.79 464.15 C 483.91 464.78 483.04 465.42 482.17 466.06 C 477.50 463.41 472.31 461.98 467.13 460.71 C 460.49 458.86 453.36 458.96 447.10 455.81 Z" />
</g>
<g id="#809d06ff">
<path fill="#809d06" opacity="1.00" d=" M 628.00 466.00 C 631.29 463.81 634.75 461.17 638.93 461.34 C 649.35 461.33 659.63 463.30 670.00 464.08 C 711.42 468.68 752.04 478.42 792.34 488.79 C 813.62 495.51 835.13 501.76 855.59 510.75 C 857.21 511.34 856.57 513.59 856.88 514.94 C 857.01 525.49 856.44 536.04 856.42 546.60 C 855.61 552.02 855.46 557.51 854.63 562.93 C 853.86 568.59 852.51 574.17 852.12 579.89 C 839.28 572.39 825.34 567.12 811.60 561.55 C 801.13 557.55 790.76 553.25 779.97 550.17 C 769.73 547.28 760.00 542.80 749.63 540.33 C 741.13 538.28 732.83 535.46 724.26 533.71 C 704.14 529.45 684.12 524.67 663.82 521.29 C 643.10 517.04 621.95 515.76 600.98 513.28 C 578.57 511.01 556.06 509.97 533.55 509.74 C 538.23 501.59 545.62 495.08 554.11 491.09 C 562.95 487.16 572.69 486.26 582.05 484.23 C 590.79 482.29 599.70 480.62 607.88 476.84 C 614.79 473.62 621.76 470.42 628.00 466.00 Z" />
</g>
<g id="#829d07ff">
<path fill="#829d07" opacity="1.00" d=" M 359.93 464.04 C 368.23 463.09 376.56 461.73 384.93 462.29 C 394.24 463.67 402.18 469.30 411.20 471.71 C 424.85 475.50 438.96 477.29 452.98 479.08 C 458.87 479.99 464.91 480.44 470.50 482.64 C 477.89 485.59 484.37 490.43 489.98 496.02 C 493.80 499.91 497.17 504.45 498.65 509.78 C 496.52 509.79 494.41 509.80 492.30 509.78 C 487.92 508.76 483.41 508.29 478.94 508.94 C 471.22 509.99 463.39 509.25 455.68 510.45 C 460.53 510.77 465.39 511.13 470.26 511.10 C 447.55 512.46 424.73 513.09 402.18 516.33 C 379.19 519.18 356.27 522.72 333.60 527.54 C 328.45 528.55 323.32 529.67 318.12 530.36 C 311.37 529.53 305.11 532.69 298.54 533.55 C 294.33 534.09 290.41 535.76 286.88 538.06 C 278.80 541.41 270.22 543.22 261.90 545.83 C 255.58 547.72 249.48 550.30 243.18 552.25 C 232.88 555.36 222.92 559.47 212.61 562.56 C 199.08 567.50 185.76 573.03 172.64 578.99 C 172.62 580.72 172.60 582.46 172.65 584.20 C 170.35 567.50 167.92 550.78 167.35 533.91 C 167.14 527.78 165.95 521.50 167.61 515.47 C 168.45 514.37 169.72 513.71 170.89 513.03 C 177.63 509.45 184.49 506.05 191.79 503.77 C 199.67 501.34 207.10 497.65 215.02 495.31 C 219.41 494.01 223.73 492.47 228.09 491.09 C 236.91 488.20 246.06 486.52 255.00 484.08 C 267.51 480.70 280.25 478.33 292.83 475.24 C 315.10 470.95 337.44 466.98 359.93 464.04 Z" />
</g>
<g id="#8fa227ff">
<path fill="#8fa227" opacity="1.00" d=" M 455.68 510.45 C 463.39 509.25 471.22 509.99 478.94 508.94 C 483.41 508.29 487.92 508.76 492.30 509.78 C 484.96 510.31 477.60 510.49 470.26 511.10 C 465.39 511.13 460.53 510.77 455.68 510.45 Z" />
</g>
<g id="#452e21ff">
<path fill="#452e21" opacity="1.00" d=" M 470.26 511.10 C 477.60 510.49 484.96 510.31 492.30 509.78 C 494.41 509.80 496.52 509.79 498.65 509.78 C 502.00 520.88 502.39 532.58 503.50 544.05 C 504.43 552.71 504.92 561.41 505.44 570.10 C 492.19 574.78 478.96 580.82 468.85 590.82 C 455.00 603.61 445.26 620.06 436.93 636.79 C 421.86 637.49 406.43 642.75 395.87 653.88 C 392.41 657.25 389.88 661.39 386.71 665.01 C 374.11 661.48 361.05 659.36 347.96 659.31 C 336.75 659.29 326.34 664.98 318.90 673.11 C 315.05 676.84 312.10 681.36 309.37 685.95 C 313.97 683.61 317.06 679.33 321.07 676.21 C 326.74 671.51 333.00 665.83 340.97 666.66 C 349.96 667.61 359.05 667.14 368.02 668.47 C 364.92 670.83 361.52 672.93 359.12 676.06 C 353.73 682.84 352.72 692.27 346.43 698.42 C 341.51 702.39 335.98 705.59 330.32 708.38 C 330.29 709.10 330.24 710.54 330.21 711.27 C 336.99 712.62 341.46 706.60 346.98 703.98 C 349.64 702.48 353.32 701.79 354.48 698.58 C 357.61 691.87 360.11 684.67 364.98 678.96 C 368.57 675.19 373.35 672.06 378.72 672.01 C 382.06 672.52 385.50 672.93 388.60 674.34 C 391.47 679.93 389.82 686.81 392.93 692.38 C 395.57 685.08 395.60 676.81 400.20 670.27 C 406.44 659.69 418.48 654.17 430.26 652.54 C 431.72 656.88 434.22 661.17 433.68 665.90 C 433.08 671.85 432.33 677.83 430.55 683.56 C 427.59 694.65 422.31 705.97 412.29 712.33 C 405.77 716.82 397.53 714.55 390.18 715.41 C 386.70 715.60 383.76 717.68 381.18 719.84 C 377.02 723.45 373.01 727.34 370.03 732.02 C 368.36 734.32 366.90 737.37 363.85 738.01 C 356.02 739.81 347.89 738.83 339.98 740.01 C 335.66 740.66 331.89 743.04 328.23 745.27 C 324.01 747.91 319.65 750.40 315.94 753.77 C 323.43 752.04 329.79 747.29 337.28 745.53 C 344.84 743.51 352.66 745.18 360.35 744.74 C 356.91 749.42 353.33 754.31 352.16 760.12 C 351.19 765.23 351.33 770.56 349.62 775.54 C 348.08 780.55 345.00 784.91 343.39 789.90 C 345.54 789.08 348.13 788.49 349.32 786.28 C 352.19 781.69 353.77 776.44 355.15 771.24 C 356.71 765.33 357.24 758.91 360.80 753.74 C 364.71 748.10 369.87 743.49 374.04 738.05 C 377.44 733.55 381.51 729.63 385.38 725.54 C 386.57 725.15 387.78 725.73 388.96 725.93 C 393.72 727.34 398.72 726.69 403.58 726.29 C 409.75 725.71 415.81 723.56 420.72 719.73 C 426.82 714.87 432.82 709.67 437.03 703.01 C 442.81 694.90 444.71 684.97 447.70 675.67 C 449.72 669.13 448.39 662.26 448.13 655.60 C 447.70 651.92 450.20 648.92 451.92 645.93 C 455.15 640.91 457.50 635.41 460.19 630.10 C 466.44 618.63 474.27 607.71 484.85 599.85 C 491.76 595.15 499.41 591.59 507.39 589.13 C 507.88 601.76 507.39 614.41 508.10 627.04 C 508.34 629.73 509.25 632.31 509.46 635.01 C 507.30 645.55 501.00 654.94 492.92 661.92 C 484.58 670.23 474.79 677.17 467.80 686.77 C 462.07 695.88 456.54 705.31 453.70 715.79 C 445.71 715.35 437.84 717.24 430.76 720.92 C 426.88 723.19 423.72 726.44 420.27 729.28 C 412.49 735.06 412.01 745.62 407.75 753.67 C 402.80 754.00 397.63 752.84 392.92 754.80 C 390.61 755.64 388.61 757.09 386.68 758.58 C 390.68 758.27 394.63 757.45 398.65 757.36 C 396.62 760.44 394.38 763.39 392.74 766.70 C 389.25 773.14 388.50 780.91 383.56 786.58 C 379.35 793.01 373.25 799.20 373.33 807.41 C 375.50 804.13 376.63 800.23 379.16 797.18 C 382.02 793.70 385.10 790.42 388.23 787.19 C 391.74 793.60 393.68 800.69 396.93 807.21 C 396.77 800.36 394.15 793.95 392.71 787.33 C 391.97 784.12 392.47 780.79 393.57 777.73 C 396.02 770.76 399.62 764.14 404.53 758.59 C 411.62 765.95 413.68 776.26 418.15 785.12 C 419.17 780.33 419.18 775.25 417.62 770.58 C 416.36 766.55 414.09 762.93 412.87 758.89 C 412.37 757.50 413.41 756.20 413.82 754.94 C 416.95 748.42 418.99 741.30 423.37 735.44 C 426.97 730.81 431.97 727.36 437.47 725.38 C 441.51 724.18 445.65 723.36 449.84 723.00 C 449.27 734.63 446.17 746.18 447.86 757.88 C 448.59 757.83 450.04 757.72 450.77 757.66 C 454.78 745.38 454.74 732.14 459.19 720.01 C 461.66 720.64 464.10 721.38 466.59 721.97 C 471.73 708.63 476.52 694.28 487.28 684.28 C 492.37 679.35 497.39 674.34 502.85 669.82 C 506.90 666.41 509.87 661.98 513.62 658.28 C 514.19 670.17 512.43 682.10 513.87 693.96 C 515.01 705.54 507.83 715.51 501.47 724.46 C 497.30 730.28 495.27 737.92 488.88 741.88 C 481.34 746.77 474.29 752.41 467.96 758.80 C 464.22 762.64 460.92 767.03 459.06 772.11 C 455.03 781.08 458.08 791.89 452.25 800.24 C 448.54 807.26 439.68 807.41 434.03 812.04 C 431.28 814.33 428.74 817.09 427.42 820.46 C 426.49 822.25 428.10 823.87 428.74 825.47 C 431.71 820.67 434.23 815.25 439.08 812.03 C 442.95 809.22 447.98 809.92 452.48 809.72 C 455.15 803.81 459.02 798.52 461.52 792.54 C 463.26 788.56 462.69 784.17 462.77 779.97 C 462.92 775.22 464.93 770.69 467.86 767.02 C 472.09 762.50 476.86 758.54 481.67 754.67 C 484.66 752.22 488.12 750.35 490.74 747.47 C 489.31 755.93 492.13 764.49 495.75 772.06 C 500.20 780.97 507.60 787.95 512.39 796.65 C 514.05 799.18 512.67 802.15 511.64 804.62 C 507.57 813.06 505.31 822.20 502.21 831.01 C 503.24 831.70 504.29 832.41 505.33 833.13 C 508.19 823.62 513.47 815.10 516.50 805.68 C 519.07 811.43 522.42 816.80 526.14 821.88 C 527.50 823.83 529.51 825.16 531.53 826.38 C 527.63 818.69 524.02 810.80 521.25 802.63 C 519.60 798.57 522.25 794.71 524.70 791.70 C 531.03 783.78 537.82 775.72 540.37 765.67 C 542.49 758.62 542.85 751.20 542.22 743.91 C 554.91 747.96 565.05 757.07 573.98 766.60 C 581.85 774.60 575.71 786.58 579.94 795.92 C 581.96 800.41 583.83 805.11 586.89 809.02 C 591.73 810.75 597.42 810.92 601.38 814.61 C 604.55 817.34 605.02 821.94 608.20 824.66 C 608.07 821.43 607.69 818.02 605.64 815.39 C 601.40 809.58 593.28 808.75 588.88 803.13 C 584.85 798.07 583.08 791.43 583.60 785.02 C 584.14 778.24 582.99 771.21 579.48 765.32 C 572.42 755.16 562.27 747.75 552.22 740.79 C 548.34 738.10 543.85 736.55 539.74 734.30 C 537.92 731.33 536.75 728.01 535.04 724.98 C 531.38 718.28 526.96 711.72 525.66 704.06 C 525.03 699.10 526.24 694.17 526.42 689.23 C 527.19 679.44 525.27 669.36 528.28 659.82 C 532.41 662.95 533.39 668.40 537.08 671.89 C 541.49 676.16 545.55 680.78 550.16 684.86 C 560.64 695.42 568.07 708.77 572.51 722.93 C 574.15 722.76 575.79 722.57 577.44 722.38 C 578.87 732.04 582.18 741.33 583.33 751.05 C 583.63 753.75 584.25 756.41 585.18 758.97 C 586.26 757.08 587.37 755.14 587.69 752.96 C 589.43 743.06 586.85 733.16 586.36 723.28 C 594.09 723.38 601.96 725.97 607.55 731.46 C 615.26 739.11 617.72 750.10 623.38 759.09 C 619.63 765.74 615.73 772.66 615.18 780.45 C 614.88 782.20 616.12 783.64 616.85 785.14 C 618.25 781.08 619.11 776.84 620.95 772.95 C 622.67 769.11 625.19 765.71 627.22 762.04 C 632.09 768.38 636.81 775.21 638.80 783.05 C 639.84 791.29 636.19 799.09 634.93 807.10 C 638.13 800.68 641.04 794.02 642.44 786.95 C 647.68 792.69 650.61 799.96 654.96 806.29 C 653.19 798.47 648.79 791.63 645.98 784.19 C 642.47 775.26 636.93 767.37 632.66 758.82 C 638.85 757.39 645.21 758.21 651.49 757.80 C 644.52 754.09 636.48 753.45 628.76 754.46 C 624.45 748.27 622.44 740.89 618.58 734.47 C 616.61 731.08 613.64 728.45 610.70 725.94 C 612.20 723.78 613.73 721.64 615.29 719.52 C 622.72 725.01 632.32 728.22 641.55 726.26 C 643.83 726.03 646.42 724.81 648.51 726.34 C 652.64 728.74 656.35 731.96 658.93 736.02 C 662.55 741.68 666.28 747.27 670.32 752.64 C 674.60 758.22 673.78 765.68 676.02 772.05 C 678.33 778.71 681.80 785.58 688.03 789.36 C 686.61 783.34 682.50 778.45 680.76 772.54 C 679.11 767.61 678.69 762.40 677.84 757.31 C 677.06 752.75 674.47 748.82 671.75 745.20 C 678.80 745.72 685.90 743.88 692.90 745.17 C 699.97 747.29 705.92 752.12 713.13 753.94 C 707.27 750.11 701.27 746.50 695.56 742.46 C 687.80 736.94 677.80 741.15 669.20 738.81 C 666.47 737.23 664.97 734.29 663.16 731.83 C 658.90 725.63 654.21 718.96 646.91 716.17 C 640.02 714.10 632.62 716.04 625.69 714.18 C 621.72 712.48 618.89 709.05 615.94 706.04 C 607.40 696.90 603.23 684.70 600.78 672.66 C 599.07 666.40 598.67 659.69 600.79 653.48 C 615.07 653.23 629.40 661.82 634.68 675.30 C 637.36 681.09 636.05 687.95 639.22 693.55 C 641.30 686.76 641.47 679.53 644.04 672.87 C 649.50 672.95 655.95 670.29 660.57 674.39 C 668.57 680.96 669.91 692.10 675.90 700.13 C 678.83 703.55 683.33 704.92 687.14 707.11 C 691.59 709.29 696.56 712.53 701.64 710.41 C 695.07 705.82 686.86 703.67 681.34 697.63 C 676.76 692.88 675.34 686.23 672.46 680.50 C 670.03 675.28 666.14 670.99 662.69 666.47 C 673.92 666.73 685.45 665.44 696.35 668.84 C 702.13 670.72 706.57 675.04 710.60 679.42 C 713.48 682.68 717.40 684.66 721.18 686.70 C 717.82 683.41 714.72 679.89 711.73 676.28 C 703.80 667.43 693.27 659.92 681.07 659.08 C 668.37 657.71 656.01 661.29 643.88 664.49 C 639.95 658.44 634.87 653.24 629.54 648.44 C 625.46 644.76 620.30 642.69 615.24 640.78 C 608.92 638.58 602.23 637.26 595.51 637.52 C 589.43 621.64 580.19 606.92 567.94 595.07 C 562.09 589.51 556.15 583.88 549.01 580.00 C 542.28 576.03 535.16 572.57 527.45 571.05 C 527.71 558.01 529.43 545.04 529.93 532.01 C 530.69 524.57 530.49 516.69 533.55 509.74 C 556.06 509.97 578.57 511.01 600.98 513.28 C 621.95 515.76 643.10 517.04 663.82 521.29 C 684.12 524.67 704.14 529.45 724.26 533.71 C 732.83 535.46 741.13 538.28 749.63 540.33 C 760.00 542.80 769.73 547.28 779.97 550.17 C 790.76 553.25 801.13 557.55 811.60 561.55 C 825.34 567.12 839.28 572.39 852.12 579.89 C 851.25 588.05 848.84 595.94 847.04 603.92 C 843.53 619.21 838.29 634.04 832.50 648.60 C 829.31 655.73 826.78 663.15 822.91 669.96 C 815.65 685.39 806.16 699.60 796.74 713.77 C 792.08 721.25 785.92 727.60 780.54 734.54 C 765.33 753.52 748.40 771.20 729.50 786.53 C 719.75 793.78 710.74 802.04 700.21 808.21 C 683.64 819.31 666.08 828.94 647.68 836.67 C 635.23 841.48 622.82 846.52 609.90 849.92 C 590.52 855.30 570.88 860.17 550.77 861.69 C 533.25 863.52 515.62 865.01 498.00 864.05 C 486.79 863.64 475.59 862.77 464.46 861.36 C 452.21 860.10 439.98 858.43 428.09 855.12 C 395.75 847.71 364.76 834.79 336.42 817.59 C 328.79 812.48 320.73 808.06 313.24 802.75 C 297.01 790.86 282.10 777.29 267.56 763.44 C 257.23 752.70 247.40 741.41 238.72 729.28 C 233.42 722.52 228.24 715.65 223.80 708.27 C 214.82 695.77 207.80 682.04 200.69 668.43 C 195.23 657.80 190.68 646.74 186.66 635.50 C 182.19 624.73 179.69 613.32 176.52 602.13 C 174.98 596.21 173.56 590.25 172.65 584.20 C 172.60 582.46 172.62 580.72 172.64 578.99 C 185.76 573.03 199.08 567.50 212.61 562.56 C 222.92 559.47 232.88 555.36 243.18 552.25 C 249.48 550.30 255.58 547.72 261.90 545.83 C 270.22 543.22 278.80 541.41 286.88 538.06 C 297.40 535.98 307.85 533.46 318.12 530.36 C 323.32 529.67 328.45 528.55 333.60 527.54 C 356.27 522.72 379.19 519.18 402.18 516.33 C 424.73 513.09 447.55 512.46 470.26 511.10 Z" />
</g>
<g id="#a9cf2fff">
<path fill="#a9cf2f" opacity="1.00" d=" M 155.33 514.84 C 156.33 517.30 157.93 519.77 157.61 522.54 C 157.33 526.26 155.72 529.89 156.40 533.66 C 157.45 539.21 158.87 544.70 160.36 550.15 C 161.00 554.49 161.54 558.84 161.93 563.21 C 163.62 583.10 168.26 602.65 174.36 621.63 C 178.94 637.61 185.57 652.89 192.39 668.02 C 185.75 662.76 185.37 653.60 181.01 646.85 C 179.03 643.78 174.96 645.80 172.06 644.78 C 168.27 643.12 165.10 639.92 160.82 639.55 C 156.15 639.13 150.76 639.74 147.57 643.57 C 145.14 645.96 145.02 649.55 144.46 652.70 C 143.27 652.25 142.07 651.81 140.87 651.38 C 140.71 651.78 140.38 652.59 140.21 652.99 C 140.82 655.18 141.41 657.37 142.02 659.57 C 140.21 659.53 138.40 659.48 136.59 659.44 C 136.62 664.06 138.81 668.10 141.20 671.92 C 142.59 673.82 142.15 676.19 141.93 678.38 C 138.49 674.13 137.31 668.67 134.97 663.83 C 130.00 650.87 125.03 637.77 122.19 624.17 C 122.26 619.31 121.51 614.51 120.22 609.84 C 118.81 604.90 121.31 599.62 119.21 594.83 C 117.34 589.96 115.26 585.16 113.97 580.10 C 113.29 577.36 114.24 574.61 114.39 571.88 C 114.70 568.64 113.41 565.48 113.71 562.26 C 114.47 558.55 116.47 555.26 117.64 551.68 C 119.25 546.77 120.24 541.69 121.52 536.70 C 124.74 534.63 128.05 532.33 131.98 531.99 C 135.76 531.57 139.52 530.82 143.02 529.28 C 144.55 529.95 146.09 530.64 147.62 531.34 C 149.61 529.73 151.60 528.12 153.59 526.52 C 153.95 522.59 154.51 518.69 155.33 514.84 Z" />
</g>
<g id="#8b9425ff">
<path fill="#8b9425" opacity="1.00" d=" M 298.54 533.55 C 305.11 532.69 311.37 529.53 318.12 530.36 C 307.85 533.46 297.40 535.98 286.88 538.06 C 290.41 535.76 294.33 534.09 298.54 533.55 Z" />
</g>
<g id="#619718ff">
<path fill="#619718" opacity="1.00" d=" M 870.96 548.41 C 873.83 547.02 876.31 544.96 878.90 543.11 C 880.05 548.02 881.81 552.91 885.62 556.41 C 890.86 561.04 887.88 568.52 890.45 574.33 C 890.22 575.50 889.99 576.68 889.77 577.87 C 892.14 580.64 894.70 583.27 896.80 586.28 C 899.26 589.56 897.75 594.02 899.51 597.56 C 901.07 600.83 903.73 603.89 903.50 607.74 C 903.20 610.94 901.53 613.81 901.12 616.99 C 900.96 619.45 901.41 621.89 901.63 624.34 C 901.50 627.52 900.06 630.47 899.25 633.52 C 896.29 642.55 893.88 651.85 889.52 660.34 C 889.83 655.33 890.78 650.39 891.13 645.38 C 889.36 643.59 886.30 642.14 886.51 639.23 C 887.18 625.01 887.87 610.60 885.37 596.51 C 883.83 591.20 876.48 592.47 874.08 587.92 C 871.84 584.01 870.38 579.71 868.20 575.76 C 865.70 571.37 865.61 566.22 865.14 561.33 C 864.12 562.05 863.02 562.65 861.95 563.27 C 861.89 562.97 861.78 562.36 861.72 562.06 C 862.25 557.18 862.49 552.28 863.26 547.43 C 863.81 546.51 864.36 545.60 864.92 544.69 C 865.34 544.70 866.18 544.72 866.59 544.73 C 867.97 546.01 869.13 547.72 870.96 548.41 Z" />
</g>
<g id="#f8fceeff">
<path fill="#f8fcee" opacity="1.00" d=" M 858.08 557.20 C 860.02 552.80 861.79 548.33 863.36 543.78 C 863.34 544.69 863.29 546.52 863.26 547.43 C 862.49 552.28 862.25 557.18 861.72 562.06 C 859.43 585.07 853.47 607.54 846.69 629.59 C 843.89 637.63 840.88 645.59 837.70 653.49 C 830.69 670.13 822.48 686.28 812.68 701.45 C 809.16 706.08 805.91 710.89 802.84 715.83 C 794.95 727.43 785.72 738.03 777.03 749.02 C 763.60 764.54 749.57 779.69 733.43 792.43 C 722.38 801.15 711.54 810.23 699.44 817.47 C 691.79 822.68 683.70 827.19 675.71 831.84 C 671.29 833.77 667.03 836.05 662.64 838.05 C 657.75 836.87 652.70 836.52 647.68 836.67 C 666.08 828.94 683.64 819.31 700.21 808.21 C 710.74 802.04 719.75 793.78 729.50 786.53 C 748.40 771.20 765.33 753.52 780.54 734.54 C 785.92 727.60 792.08 721.25 796.74 713.77 C 806.16 699.60 815.65 685.39 822.91 669.96 C 826.78 663.15 829.31 655.73 832.50 648.60 C 838.29 634.04 843.53 619.21 847.04 603.92 C 848.84 595.94 851.25 588.05 852.12 579.89 C 852.51 574.17 853.86 568.59 854.63 562.93 C 855.46 557.51 855.61 552.02 856.42 546.60 C 857.50 550.03 858.15 553.59 858.08 557.20 Z" />
</g>
<g id="#fcfdf6ff">
<path fill="#fcfdf6" opacity="1.00" d=" M 162.45 556.80 C 163.57 560.84 164.52 564.94 164.79 569.13 C 165.31 581.49 169.64 593.22 171.81 605.31 C 172.47 609.64 174.67 613.47 177.26 616.94 C 176.55 612.05 173.58 606.83 176.52 602.13 C 179.69 613.32 182.19 624.73 186.66 635.50 C 190.68 646.74 195.23 657.80 200.69 668.43 C 207.80 682.04 214.82 695.77 223.80 708.27 C 228.24 715.65 233.42 722.52 238.72 729.28 C 247.40 741.41 257.23 752.70 267.56 763.44 C 282.10 777.29 297.01 790.86 313.24 802.75 C 320.73 808.06 328.79 812.48 336.42 817.59 C 364.76 834.79 395.75 847.71 428.09 855.12 C 439.98 858.43 452.21 860.10 464.46 861.36 C 475.59 862.77 486.79 863.64 498.00 864.05 C 515.62 865.01 533.25 863.52 550.77 861.69 C 570.88 860.17 590.52 855.30 609.90 849.92 C 622.82 846.52 635.23 841.48 647.68 836.67 C 652.70 836.52 657.75 836.87 662.64 838.05 C 654.52 841.41 646.95 846.07 638.46 848.50 C 627.22 852.52 615.90 856.31 604.41 859.53 C 588.28 863.97 571.78 866.97 555.19 869.08 C 531.61 872.26 507.67 873.25 483.97 870.94 C 471.47 869.68 458.93 868.65 446.56 866.40 C 440.39 865.34 434.33 863.76 428.18 862.60 C 411.97 858.72 396.27 853.05 380.60 847.42 C 373.76 844.53 366.83 841.82 360.24 838.40 C 353.27 834.44 345.71 831.57 339.15 826.91 C 329.20 821.39 319.84 814.92 310.43 808.54 C 295.16 798.90 282.25 786.14 268.91 774.09 C 257.81 763.15 247.50 751.43 237.52 739.47 C 220.51 716.98 204.67 693.46 192.39 668.02 C 185.57 652.89 178.94 637.61 174.36 621.63 C 168.26 602.65 163.62 583.10 161.93 563.21 C 162.03 561.06 162.24 558.93 162.45 556.80 Z" />
</g>
<g id="#689b14ff">
<path fill="#689b14" opacity="1.00" d=" M 861.95 563.27 C 863.02 562.65 864.12 562.05 865.14 561.33 C 865.61 566.22 865.70 571.37 868.20 575.76 C 870.38 579.71 871.84 584.01 874.08 587.92 C 876.48 592.47 883.83 591.20 885.37 596.51 C 887.87 610.60 887.18 625.01 886.51 639.23 C 886.30 642.14 889.36 643.59 891.13 645.38 C 890.78 650.39 889.83 655.33 889.52 660.34 C 888.69 665.52 886.10 670.24 884.03 675.02 C 880.55 682.15 877.95 689.81 873.28 696.30 C 873.24 692.68 872.52 688.75 874.49 685.48 C 876.66 681.54 879.10 677.76 881.10 673.73 C 879.30 673.17 877.52 672.62 875.74 672.07 C 874.38 667.46 872.14 663.21 870.05 658.91 C 867.35 653.34 869.11 646.49 865.60 641.26 C 862.83 639.42 859.30 640.77 856.25 640.95 C 856.96 640.41 857.68 639.88 858.40 639.36 C 858.31 638.96 858.23 638.57 858.16 638.19 C 855.91 638.24 852.68 638.39 852.01 635.63 C 851.97 632.97 852.16 630.29 851.62 627.66 C 849.96 628.29 848.33 628.94 846.69 629.59 C 853.47 607.54 859.43 585.07 861.72 562.06 C 861.78 562.36 861.89 562.97 861.95 563.27 Z" />
</g>
<g id="#472f23ff">
<path fill="#472f23" opacity="1.00" d=" M 527.68 590.57 C 536.96 593.05 545.50 597.93 552.67 604.28 C 559.96 610.39 566.78 617.36 571.06 625.96 C 575.74 634.13 579.57 642.74 584.22 650.92 C 587.02 655.60 583.94 660.98 584.32 665.99 C 585.15 678.81 591.14 690.51 597.68 701.30 C 602.25 708.51 608.56 714.36 615.29 719.52 C 613.73 721.64 612.20 723.78 610.70 725.94 C 606.83 722.82 602.92 719.64 598.35 717.59 C 593.46 715.04 587.79 715.46 582.56 716.48 C 580.18 709.18 578.07 701.68 573.86 695.16 C 569.73 687.91 564.47 681.30 558.15 675.84 C 551.55 670.14 546.02 663.32 539.23 657.84 C 534.09 651.18 528.68 643.77 528.39 635.02 C 527.31 620.23 527.53 605.39 527.68 590.57 Z" />
</g>
<g id="#719f0eff">
<path fill="#719f0e" opacity="1.00" d=" M 846.69 629.59 C 848.33 628.94 849.96 628.29 851.62 627.66 C 852.16 630.29 851.97 632.97 852.01 635.63 C 852.68 638.39 855.91 638.24 858.16 638.19 C 858.23 638.57 858.31 638.96 858.40 639.36 C 857.68 639.88 856.96 640.41 856.25 640.95 C 859.30 640.77 862.83 639.42 865.60 641.26 C 869.11 646.49 867.35 653.34 870.05 658.91 C 872.14 663.21 874.38 667.46 875.74 672.07 C 877.52 672.62 879.30 673.17 881.10 673.73 C 879.10 677.76 876.66 681.54 874.49 685.48 C 872.52 688.75 873.24 692.68 873.28 696.30 C 873.12 698.33 871.70 700.01 870.87 701.83 C 868.43 705.86 866.92 710.49 863.70 714.02 C 864.49 708.98 866.19 704.13 866.89 699.08 C 867.51 695.67 865.52 692.67 864.62 689.52 C 863.51 686.29 863.39 682.61 861.12 679.90 C 858.10 675.96 854.95 671.86 850.48 669.49 C 848.06 667.98 845.12 667.05 843.28 664.79 C 841.35 661.05 840.24 656.90 837.70 653.49 C 840.88 645.59 843.89 637.63 846.69 629.59 Z" />
</g>
<g id="#a7cf1dff">
<path fill="#a7cf1d" opacity="1.00" d=" M 147.57 643.57 C 150.76 639.74 156.15 639.13 160.82 639.55 C 165.10 639.92 168.27 643.12 172.06 644.78 C 174.96 645.80 179.03 643.78 181.01 646.85 C 185.37 653.60 185.75 662.76 192.39 668.02 C 192.41 669.25 192.44 670.50 192.46 671.75 C 191.57 671.79 190.68 671.85 189.79 671.91 C 188.02 674.70 186.14 677.84 182.75 678.84 C 176.27 680.89 169.28 677.45 162.84 679.72 C 161.47 681.30 160.58 683.28 158.99 684.67 C 157.34 685.60 155.47 686.06 153.75 686.85 C 155.65 688.65 157.93 690.10 159.46 692.27 C 159.39 693.83 158.10 695.09 157.44 696.47 C 155.91 694.93 154.39 693.38 152.86 691.85 C 152.18 692.56 151.51 693.29 150.86 694.04 C 153.41 698.46 157.06 702.24 158.87 707.08 C 161.07 712.64 164.56 717.56 167.07 722.98 C 169.85 728.84 175.33 733.44 175.91 740.24 C 172.04 737.16 170.42 732.33 167.59 728.44 C 162.67 721.43 159.07 713.63 154.89 706.18 C 151.27 700.03 148.42 693.48 144.98 687.23 C 143.76 684.38 141.98 681.54 141.93 678.38 C 142.15 676.19 142.59 673.82 141.20 671.92 C 138.81 668.10 136.62 664.06 136.59 659.44 C 138.40 659.48 140.21 659.53 142.02 659.57 C 141.41 657.37 140.82 655.18 140.21 652.99 C 140.38 652.59 140.71 651.78 140.87 651.38 C 142.07 651.81 143.27 652.25 144.46 652.70 C 145.02 649.55 145.14 645.96 147.57 643.57 Z" />
</g>
<g id="#7da608ff">
<path fill="#7da608" opacity="1.00" d=" M 812.68 701.45 C 822.48 686.28 830.69 670.13 837.70 653.49 C 840.24 656.90 841.35 661.05 843.28 664.79 C 845.12 667.05 848.06 667.98 850.48 669.49 C 854.95 671.86 858.10 675.96 861.12 679.90 C 863.39 682.61 863.51 686.29 864.62 689.52 C 865.52 692.67 867.51 695.67 866.89 699.08 C 866.19 704.13 864.49 708.98 863.70 714.02 C 862.35 718.46 859.40 722.18 857.08 726.14 C 854.25 730.28 852.12 734.93 848.56 738.53 C 848.62 734.76 850.18 731.32 852.07 728.14 C 849.05 728.11 846.03 728.69 843.60 730.59 C 840.69 732.68 836.31 734.53 833.18 731.86 C 829.44 729.31 827.71 725.05 825.36 721.40 C 821.14 719.85 816.44 720.28 812.07 719.27 C 810.41 720.49 808.76 721.72 807.12 722.97 C 806.84 722.46 806.30 721.45 806.02 720.94 C 807.66 717.11 810.12 713.76 812.64 710.48 C 814.68 707.84 813.21 704.35 812.68 701.45 Z" />
</g>
<g id="#f9faf5ff">
<path fill="#f9faf5" opacity="1.00" d=" M 318.90 673.11 C 326.34 664.98 336.75 659.29 347.96 659.31 C 361.05 659.36 374.11 661.48 386.71 665.01 C 383.88 667.14 381.09 669.35 378.72 672.01 C 373.35 672.06 368.57 675.19 364.98 678.96 C 360.11 684.67 357.61 691.87 354.48 698.58 C 353.32 701.79 349.64 702.48 346.98 703.98 C 341.46 706.60 336.99 712.62 330.21 711.27 C 330.24 710.54 330.29 709.10 330.32 708.38 C 335.98 705.59 341.51 702.39 346.43 698.42 C 352.72 692.27 353.73 682.84 359.12 676.06 C 361.52 672.93 364.92 670.83 368.02 668.47 C 359.05 667.14 349.96 667.61 340.97 666.66 C 333.00 665.83 326.74 671.51 321.07 676.21 C 320.34 675.17 319.62 674.13 318.90 673.11 Z" />
</g>
<g id="#a4cc08ff">
<path fill="#a4cc08" opacity="1.00" d=" M 192.39 668.02 C 204.67 693.46 220.51 716.98 237.52 739.47 C 247.50 751.43 257.81 763.15 268.91 774.09 C 282.25 786.14 295.16 798.90 310.43 808.54 C 319.84 814.92 329.20 821.39 339.15 826.91 C 345.71 831.57 353.27 834.44 360.24 838.40 C 359.66 838.82 358.51 839.65 357.94 840.07 C 359.03 841.70 360.00 843.48 361.46 844.84 C 362.97 844.59 364.44 844.12 365.92 843.71 C 365.75 844.90 365.59 846.10 365.44 847.31 C 373.19 850.18 380.15 854.96 388.33 856.70 C 388.02 858.17 387.71 859.65 387.40 861.14 C 389.35 861.63 391.39 861.96 393.23 862.83 C 395.00 864.38 396.18 866.47 397.85 868.12 C 400.81 869.34 404.11 869.25 407.26 869.59 C 407.73 871.17 408.21 872.77 408.70 874.37 C 411.02 874.81 413.35 875.25 415.68 875.71 C 415.69 877.39 415.70 879.09 415.72 880.80 C 407.94 880.44 400.10 879.63 392.41 881.34 C 391.72 884.11 390.68 886.87 390.64 889.76 C 392.14 893.38 397.00 892.91 400.16 893.93 C 399.48 895.72 398.64 897.44 397.72 899.12 C 398.59 899.95 399.47 900.77 400.37 901.61 C 400.15 902.38 399.94 903.17 399.72 903.97 C 395.96 903.29 392.14 903.06 388.32 902.84 C 381.22 902.67 375.02 898.84 368.46 896.59 C 358.86 893.27 349.78 888.68 340.44 884.75 C 333.91 882.08 328.03 878.11 321.60 875.23 C 301.14 864.44 282.20 851.04 263.68 837.24 C 256.73 831.58 249.63 826.07 243.40 819.60 C 235.81 813.56 229.40 806.27 222.59 799.41 C 214.21 789.81 204.80 781.12 196.94 771.08 C 191.77 764.14 186.45 757.31 181.88 749.96 C 179.94 746.70 176.86 744.00 175.91 740.24 C 175.33 733.44 169.85 728.84 167.07 722.98 C 164.56 717.56 161.07 712.64 158.87 707.08 C 157.06 702.24 153.41 698.46 150.86 694.04 C 151.51 693.29 152.18 692.56 152.86 691.85 C 154.39 693.38 155.91 694.93 157.44 696.47 C 158.10 695.09 159.39 693.83 159.46 692.27 C 157.93 690.10 155.65 688.65 153.75 686.85 C 155.47 686.06 157.34 685.60 158.99 684.67 C 160.58 683.28 161.47 681.30 162.84 679.72 C 169.28 677.45 176.27 680.89 182.75 678.84 C 186.14 677.84 188.02 674.70 189.79 671.91 C 190.68 671.85 191.57 671.79 192.46 671.75 C 192.44 670.50 192.41 669.25 192.39 668.02 Z" />
</g>
<g id="#f7ecdcff">
<path fill="#f7ecdc" opacity="1.00" d=" M 309.37 685.95 C 312.10 681.36 315.05 676.84 318.90 673.11 C 319.62 674.13 320.34 675.17 321.07 676.21 C 317.06 679.33 313.97 683.61 309.37 685.95 Z" />
</g>
<g id="#8aae08ff">
<path fill="#8aae08" opacity="1.00" d=" M 802.84 715.83 C 805.91 710.89 809.16 706.08 812.68 701.45 C 813.21 704.35 814.68 707.84 812.64 710.48 C 810.12 713.76 807.66 717.11 806.02 720.94 C 806.30 721.45 806.84 722.46 807.12 722.97 C 808.76 721.72 810.41 720.49 812.07 719.27 C 816.44 720.28 821.14 719.85 825.36 721.40 C 827.71 725.05 829.44 729.31 833.18 731.86 C 836.31 734.53 840.69 732.68 843.60 730.59 C 846.03 728.69 849.05 728.11 852.07 728.14 C 850.18 731.32 848.62 734.76 848.56 738.53 C 848.23 741.25 846.03 743.23 844.69 745.50 C 837.92 755.94 829.60 765.25 822.10 775.16 C 803.91 797.15 783.71 817.63 761.00 834.98 C 761.23 833.69 761.43 832.42 761.64 831.15 C 760.09 831.78 758.44 832.02 756.78 831.80 C 756.51 832.89 756.27 834.00 755.91 835.08 C 749.77 835.78 743.76 833.39 737.67 832.86 C 737.05 834.79 737.12 837.12 735.86 838.79 C 733.59 840.15 730.74 839.77 728.22 840.16 C 727.46 834.98 727.45 829.72 728.40 824.57 C 730.54 824.24 732.69 823.91 734.85 823.60 C 734.89 822.10 734.91 820.62 734.94 819.14 C 726.52 818.73 718.06 819.41 709.67 818.27 C 702.92 816.74 700.78 825.62 694.74 826.57 C 688.26 827.85 682.15 830.43 675.71 831.84 C 683.70 827.19 691.79 822.68 699.44 817.47 C 711.54 810.23 722.38 801.15 733.43 792.43 C 749.57 779.69 763.60 764.54 777.03 749.02 C 785.72 738.03 794.95 727.43 802.84 715.83 Z" />
</g>
<g id="#442e21ff">
<path fill="#442e21" opacity="1.00" d=" M 518.50 712.02 C 521.32 720.88 527.75 727.79 532.14 735.82 C 534.90 740.66 534.75 746.36 535.24 751.73 C 534.30 760.96 533.32 770.89 527.51 778.53 C 524.15 782.94 520.74 787.32 517.71 791.96 C 513.36 784.38 506.32 778.69 502.50 770.78 C 497.97 760.23 496.14 747.37 501.84 736.91 C 506.81 728.21 515.02 721.62 518.50 712.02 Z" />
</g>
<g id="#f9f9eeff">
<path fill="#f9f9ee" opacity="1.00" d=" M 370.03 732.02 C 373.01 727.34 377.02 723.45 381.18 719.84 C 381.65 721.97 382.11 724.12 382.56 726.27 C 383.50 726.01 384.43 725.75 385.38 725.54 C 381.51 729.63 377.44 733.55 374.04 738.05 C 369.87 743.49 364.71 748.10 360.80 753.74 C 357.24 758.91 356.71 765.33 355.15 771.24 C 353.77 776.44 352.19 781.69 349.32 786.28 C 348.13 788.49 345.54 789.08 343.39 789.90 C 345.00 784.91 348.08 780.55 349.62 775.54 C 351.33 770.56 351.19 765.23 352.16 760.12 C 353.33 754.31 356.91 749.42 360.35 744.74 C 352.66 745.18 344.84 743.51 337.28 745.53 C 329.79 747.29 323.43 752.04 315.94 753.77 C 319.65 750.40 324.01 747.91 328.23 745.27 C 331.89 743.04 335.66 740.66 339.98 740.01 C 347.89 738.83 356.02 739.81 363.85 738.01 C 366.90 737.37 368.36 734.32 370.03 732.02 Z" />
</g>
<g id="#f9f9f1ff">
<path fill="#f9f9f1" opacity="1.00" d=" M 420.27 729.28 C 423.72 726.44 426.88 723.19 430.76 720.92 C 431.00 722.05 431.24 723.18 431.49 724.33 C 433.48 724.69 435.47 725.07 437.47 725.38 C 431.97 727.36 426.97 730.81 423.37 735.44 C 418.99 741.30 416.95 748.42 413.82 754.94 C 413.41 756.20 412.37 757.50 412.87 758.89 C 414.09 762.93 416.36 766.55 417.62 770.58 C 419.18 775.25 419.17 780.33 418.15 785.12 C 413.68 776.26 411.62 765.95 404.53 758.59 C 399.62 764.14 396.02 770.76 393.57 777.73 C 392.47 780.79 391.97 784.12 392.71 787.33 C 394.15 793.95 396.77 800.36 396.93 807.21 C 393.68 800.69 391.74 793.60 388.23 787.19 C 385.10 790.42 382.02 793.70 379.16 797.18 C 376.63 800.23 375.50 804.13 373.33 807.41 C 373.25 799.20 379.35 793.01 383.56 786.58 C 388.50 780.91 389.25 773.14 392.74 766.70 C 394.38 763.39 396.62 760.44 398.65 757.36 C 394.63 757.45 390.68 758.27 386.68 758.58 C 388.61 757.09 390.61 755.64 392.92 754.80 C 397.63 752.84 402.80 754.00 407.75 753.67 C 412.01 745.62 412.49 735.06 420.27 729.28 Z" />
</g>
<g id="#faf7efff">
<path fill="#faf7ef" opacity="1.00" d=" M 535.24 751.73 C 536.08 755.14 536.33 758.64 536.93 762.10 C 537.83 763.49 539.18 764.51 540.37 765.67 C 537.82 775.72 531.03 783.78 524.70 791.70 C 522.25 794.71 519.60 798.57 521.25 802.63 C 524.02 810.80 527.63 818.69 531.53 826.38 C 529.51 825.16 527.50 823.83 526.14 821.88 C 522.42 816.80 519.07 811.43 516.50 805.68 C 513.47 815.10 508.19 823.62 505.33 833.13 C 504.29 832.41 503.24 831.70 502.21 831.01 C 505.31 822.20 507.57 813.06 511.64 804.62 C 512.67 802.15 514.05 799.18 512.39 796.65 C 507.60 787.95 500.20 780.97 495.75 772.06 C 498.00 771.62 500.25 771.20 502.50 770.78 C 506.32 778.69 513.36 784.38 517.71 791.96 C 520.74 787.32 524.15 782.94 527.51 778.53 C 533.32 770.89 534.30 760.96 535.24 751.73 Z" />
</g>
<g id="#f6f1e7ff">
<path fill="#f6f1e7" opacity="1.00" d=" M 459.06 772.11 C 460.92 767.03 464.22 762.64 467.96 758.80 C 468.23 759.39 468.77 760.56 469.04 761.14 C 467.87 762.67 466.70 764.20 465.53 765.74 C 466.30 766.15 467.08 766.58 467.86 767.02 C 464.93 770.69 462.92 775.22 462.77 779.97 C 462.69 784.17 463.26 788.56 461.52 792.54 C 459.02 798.52 455.15 803.81 452.48 809.72 C 447.98 809.92 442.95 809.22 439.08 812.03 C 434.23 815.25 431.71 820.67 428.74 825.47 C 428.10 823.87 426.49 822.25 427.42 820.46 C 428.74 817.09 431.28 814.33 434.03 812.04 C 439.68 807.41 448.54 807.26 452.25 800.24 C 458.08 791.89 455.03 781.08 459.06 772.11 Z" />
</g>
<g id="#fcf9f6ff">
<path fill="#fcf9f6" opacity="1.00" d=" M 579.48 765.32 C 582.99 771.21 584.14 778.24 583.60 785.02 C 583.08 791.43 584.85 798.07 588.88 803.13 C 593.28 808.75 601.40 809.58 605.64 815.39 C 607.69 818.02 608.07 821.43 608.20 824.66 C 605.02 821.94 604.55 817.34 601.38 814.61 C 597.42 810.92 591.73 810.75 586.89 809.02 C 583.83 805.11 581.96 800.41 579.94 795.92 C 575.71 786.58 581.85 774.60 573.98 766.60 C 575.80 766.14 577.64 765.72 579.48 765.32 Z" />
</g>
<g id="#90b409ff">
<path fill="#90b409" opacity="1.00" d=" M 694.74 826.57 C 700.78 825.62 702.92 816.74 709.67 818.27 C 718.06 819.41 726.52 818.73 734.94 819.14 C 734.91 820.62 734.89 822.10 734.85 823.60 C 732.69 823.91 730.54 824.24 728.40 824.57 C 727.45 829.72 727.46 834.98 728.22 840.16 C 730.74 839.77 733.59 840.15 735.86 838.79 C 737.12 837.12 737.05 834.79 737.67 832.86 C 743.76 833.39 749.77 835.78 755.91 835.08 C 756.27 834.00 756.51 832.89 756.78 831.80 C 758.44 832.02 760.09 831.78 761.64 831.15 C 761.43 832.42 761.23 833.69 761.00 834.98 C 757.68 838.43 753.30 840.60 749.59 843.59 C 740.81 850.35 731.12 855.74 721.70 861.51 C 709.70 869.57 696.19 874.89 683.52 881.75 C 676.88 885.48 669.51 887.55 662.65 890.79 C 657.30 893.32 651.58 894.90 646.07 897.02 C 634.75 901.70 622.66 903.97 611.02 907.67 C 610.84 907.25 610.47 906.39 610.29 905.96 C 613.02 905.18 615.72 904.31 618.40 903.35 C 615.49 902.09 612.32 902.11 609.24 902.56 C 606.99 894.11 609.12 885.25 606.82 876.81 C 603.16 876.02 600.12 873.81 596.83 872.19 C 591.42 872.63 586.46 875.17 581.17 876.20 C 576.87 877.34 573.35 873.80 569.65 872.27 C 563.59 868.62 556.46 871.16 549.90 871.05 C 551.65 870.36 553.40 869.67 555.19 869.08 C 571.78 866.97 588.28 863.97 604.41 859.53 C 615.90 856.31 627.22 852.52 638.46 848.50 C 646.95 846.07 654.52 841.41 662.64 838.05 C 667.03 836.05 671.29 833.77 675.71 831.84 C 682.15 830.43 688.26 827.85 694.74 826.57 Z" />
</g>
<g id="#9ac209ff">
<path fill="#9ac209" opacity="1.00" d=" M 357.94 840.07 C 358.51 839.65 359.66 838.82 360.24 838.40 C 366.83 841.82 373.76 844.53 380.60 847.42 C 396.27 853.05 411.97 858.72 428.18 862.60 C 427.59 862.77 426.41 863.11 425.81 863.29 C 430.51 867.36 436.74 868.55 442.41 870.66 C 446.92 872.38 451.79 871.42 456.49 871.75 C 460.26 872.02 464.03 872.30 467.81 872.32 C 467.47 872.90 467.14 873.49 466.81 874.09 C 465.80 874.42 464.81 874.76 463.82 875.12 C 469.01 876.37 474.17 874.79 479.33 874.27 C 483.48 873.59 485.88 877.74 488.44 880.22 C 485.98 880.62 483.51 881.03 481.06 881.48 C 481.09 883.49 481.12 885.51 481.15 887.54 C 482.85 887.93 484.56 888.33 486.28 888.71 C 481.31 890.21 479.00 895.27 474.68 897.78 C 473.73 900.54 472.89 903.33 472.02 906.13 C 473.64 907.72 475.12 909.53 477.09 910.71 C 479.73 911.57 482.58 911.23 485.32 911.45 C 482.99 914.13 479.56 914.94 476.19 915.41 C 477.46 915.89 478.73 916.39 480.02 916.90 C 471.91 917.34 463.77 916.25 455.71 917.44 C 447.71 917.74 439.90 915.31 431.99 914.48 C 419.35 912.06 406.67 909.60 394.44 905.54 C 392.32 904.82 390.30 903.86 388.32 902.84 C 392.14 903.06 395.96 903.29 399.72 903.97 C 399.94 903.17 400.15 902.38 400.37 901.61 C 399.47 900.77 398.59 899.95 397.72 899.12 C 398.64 897.44 399.48 895.72 400.16 893.93 C 397.00 892.91 392.14 893.38 390.64 889.76 C 390.68 886.87 391.72 884.11 392.41 881.34 C 400.10 879.63 407.94 880.44 415.72 880.80 C 415.70 879.09 415.69 877.39 415.68 875.71 C 413.35 875.25 411.02 874.81 408.70 874.37 C 408.21 872.77 407.73 871.17 407.26 869.59 C 404.11 869.25 400.81 869.34 397.85 868.12 C 396.18 866.47 395.00 864.38 393.23 862.83 C 391.39 861.96 389.35 861.63 387.40 861.14 C 387.71 859.65 388.02 858.17 388.33 856.70 C 380.15 854.96 373.19 850.18 365.44 847.31 C 365.59 846.10 365.75 844.90 365.92 843.71 C 364.44 844.12 362.97 844.59 361.46 844.84 C 360.00 843.48 359.03 841.70 357.94 840.07 Z" />
</g>
<g id="#93b80aff">
<path fill="#93b80a" opacity="1.00" d=" M 425.81 863.29 C 426.41 863.11 427.59 862.77 428.18 862.60 C 434.33 863.76 440.39 865.34 446.56 866.40 C 458.93 868.65 471.47 869.68 483.97 870.94 C 507.67 873.25 531.61 872.26 555.19 869.08 C 553.40 869.67 551.65 870.36 549.90 871.05 C 556.46 871.16 563.59 868.62 569.65 872.27 C 573.35 873.80 576.87 877.34 581.17 876.20 C 586.46 875.17 591.42 872.63 596.83 872.19 C 600.12 873.81 603.16 876.02 606.82 876.81 C 609.12 885.25 606.99 894.11 609.24 902.56 C 612.32 902.11 615.49 902.09 618.40 903.35 C 615.72 904.31 613.02 905.18 610.29 905.96 C 610.47 906.39 610.84 907.25 611.02 907.67 C 597.09 911.23 583.05 914.60 568.75 916.37 C 554.56 918.34 540.33 920.43 525.98 920.62 C 511.32 920.93 496.65 920.79 481.99 920.28 C 473.21 919.25 464.29 919.76 455.71 917.44 C 463.77 916.25 471.91 917.34 480.02 916.90 C 478.73 916.39 477.46 915.89 476.19 915.41 C 479.56 914.94 482.99 914.13 485.32 911.45 C 482.58 911.23 479.73 911.57 477.09 910.71 C 475.12 909.53 473.64 907.72 472.02 906.13 C 472.89 903.33 473.73 900.54 474.68 897.78 C 479.00 895.27 481.31 890.21 486.28 888.71 C 484.56 888.33 482.85 887.93 481.15 887.54 C 481.12 885.51 481.09 883.49 481.06 881.48 C 483.51 881.03 485.98 880.62 488.44 880.22 C 485.88 877.74 483.48 873.59 479.33 874.27 C 474.17 874.79 469.01 876.37 463.82 875.12 C 464.81 874.76 465.80 874.42 466.81 874.09 C 467.14 873.49 467.47 872.90 467.81 872.32 C 464.03 872.30 460.26 872.02 456.49 871.75 C 451.79 871.42 446.92 872.38 442.41 870.66 C 436.74 868.55 430.51 867.36 425.81 863.29 Z" />
</g>
</svg>
