<?xml version="1.0" encoding="utf-8"?>
<!-- Generator: Adobe Illustrator 24.1.3, SVG Export Plug-In . SVG Version: 6.00 Build 0)  -->
<svg version="1.1" id="Layer_1" xmlns="http://www.w3.org/2000/svg" xmlns:xlink="http://www.w3.org/1999/xlink" x="0px" y="0px"
	 viewBox="0 0 360 60" style="enable-background:new 0 0 360 60;" xml:space="preserve">
<style type="text/css">
	.st0{fill:#0073BC;}
</style>
<g id="XMLID_367_">
	<g id="XMLID_381_">
		<path class="st0" d="M47.2,54.1H38c-6.9,0-12.6-5.6-12.6-12.6c0-6.9,5.6-12.5,12.6-12.5h19.9c-1.3-4.7-5.7-8.1-10.6-8.1H32.4
			c-1.3,0-2.3-1.1-2.3-2.3c0-1.3,1.1-2.4,2.3-2.4h14.8c8.6,0,15.8,7.2,15.8,15.7v6.4C63.1,46.9,55.8,54.1,47.2,54.1 M38,33.8
			c-4.3,0-7.8,3.5-7.8,7.7c0,4.4,3.4,7.8,7.8,7.8h9.3c5.9,0,11-5,11-11v-4.5H38z"/>
	</g>
	<g id="XMLID_380_">
		<path class="st0" d="M87.9,54.1h-3c-8.5,0-15.6-7-15.7-15.5v-0.1V18.6c0-1.4,1.1-2.4,2.4-2.4c1.3,0,2.3,1.1,2.3,2.4v19.9
			c0.1,5.9,5.1,10.8,11,10.8h3c5.9,0,11-5,11-11V18.6c0-1.3,1.1-2.4,2.3-2.4c1.4,0,2.4,1.1,2.4,2.4v19.9
			C103.5,47.1,96.4,54.1,87.9,54.1"/>
	</g>
	<g id="XMLID_379_">
		<path class="st0" d="M110.9,54.1c-1.4,0-2.4-1.1-2.4-2.4V31.7c0.2-8.6,7.2-15.6,15.7-15.6h4.5c4.2,0,8.1,1.6,11,4.6
			c0.5,0.4,0.8,1,0.8,1.7c0,1.3-1.1,2.4-2.3,2.4c-0.7,0-1.3-0.2-1.7-0.7c-2.1-2-5-3.2-7.7-3.2h-4.5c-5.8,0-10.8,4.9-11,10.8l0,20
			C113.2,53,112.2,54.1,110.9,54.1"/>
	</g>
	<g id="XMLID_376_">
		<path class="st0" d="M161.5,54.1h-9.3c-6.9,0-12.6-5.6-12.6-12.6c0-6.9,5.6-12.5,12.6-12.5h19.9c-1.3-4.7-5.7-8.1-10.6-8.1h-14.8
			c-1.3,0-2.3-1.1-2.3-2.3c0-1.3,1.1-2.4,2.3-2.4h14.8c8.6,0,15.8,7.2,15.8,15.7v6.4C177.3,46.9,170.1,54.1,161.5,54.1 M152.2,33.8
			c-4.3,0-7.8,3.5-7.8,7.7c0,4.4,3.4,7.8,7.8,7.8h9.3c5.9,0,11-5,11-11v-4.5H152.2z"/>
	</g>
	<g id="XMLID_373_">
		<path class="st0" d="M244.7,54.1h-9.3c-6.9,0-12.6-5.6-12.6-12.6c0-6.9,5.6-12.5,12.6-12.5h19.9c-1.3-4.7-5.7-8.1-10.6-8.1h-14.8
			c-1.3,0-2.3-1.1-2.3-2.3c0-1.3,1.1-2.4,2.3-2.4h14.8c8.6,0,15.8,7.2,15.8,15.7v6.4C260.5,46.9,253.3,54.1,244.7,54.1 M235.4,33.8
			c-4.3,0-7.8,3.5-7.8,7.7c0,4.3,3.5,7.8,7.8,7.8h9.3c5.9,0,11-5,11-11v-4.5H235.4z"/>
	</g>
	<g id="XMLID_372_">
		<path class="st0" d="M302.1,54.1c-1.3,0-2.3-1.1-2.3-2.4V31.9c0-5.9-5-11-11-11h-6.4c-5.8,0-10.8,4.9-11,10.8l0,20
			c0,1.3-1.1,2.4-2.3,2.4c-1.4,0-2.4-1.1-2.4-2.4V31.7c0.2-8.6,7.2-15.6,15.7-15.6h6.4c8.5,0,15.7,7.1,15.7,15.6v19.9
			C304.6,53,303.5,54.1,302.1,54.1"/>
	</g>
	<g id="XMLID_371_">
		<path class="st0" d="M329.8,54.3h-3.2c-8.6,0-15.6-7-15.6-15.6V7.3c0-1.3,1.1-2.3,2.3-2.3c1.3,0,2.4,1.1,2.4,2.3v9H329
			c1.3,0,2.4,1.1,2.4,2.3c0,1.4-1.1,2.4-2.4,2.4h-13.1v17.7c0,6,4.8,10.8,10.8,10.8h3.2c1.3,0,2.3,1.1,2.3,2.4
			C332.2,53.2,331.1,54.3,329.8,54.3"/>
	</g>
	<g id="XMLID_370_">
		<path class="st0" d="M219.8,16.1c-0.8,0-1.8,0.5-2.1,1.4L205,47.2c-0.7,1.4-1.9,2.2-3.3,2.2h0h0c-1.4,0-2.6-0.8-3.3-2.2
			l-12.7-29.6c-0.3-0.9-1.3-1.4-2.1-1.4c-1.3,0-2.4,1-2.4,2.3c0,0.2,0,0.7,0.2,1.1L194.1,49c1.3,3.1,4.2,5.1,7.5,5.1c0,0,0,0,0,0
			c0,0,0,0,0,0c3.4,0,6.3-2,7.5-5.1l12.7-29.6c0.2-0.4,0.2-0.8,0.2-1.1C222.2,17.1,221.1,16.1,219.8,16.1"/>
	</g>
</g>
</svg>
